<?xml version="1.0" encoding="UTF-8"?><svg id="a" xmlns="http://www.w3.org/2000/svg" viewBox="0 0 929.04 231.12"><defs><style>.b{fill:#060707;}.c,.d,.e{fill:#fff;}.d{font-size:139.77px;}.d,.e{font-family:Asap-Bold, Asap;}.e{font-size:135.45px;}</style></defs><g><path class="c" d="M430.79,102.54c.66-4.29,1.96-8.37,3.46-12.39,1.52-4.09,3.5-7.88,5.99-11.39,.91-1.29,1.91-2.5,3.06-3.56,2.18-2.01,4.55-3.72,7.11-5.15,.98-.56,2.02-.91,3.11-1.15-.24-.1-.49-.21-.72-.32-1.08-.54-2.15-1.13-3.21-1.72-1.57-.86-3-1.96-4.14-3.4-.51-.64-1.12-.91-1.88-.94-.72-.04-1.44-.07-2.15-.12-.17-.01-.33-.03-.48-.06-.12,.07-.25,.14-.38,.19-.52,.21-1.06,.37-1.58,.58-2.84,1.16-5.54,2.63-8.2,4.17-1.72,.99-3.38,2.08-4.99,3.27-.67,.5-1.01,1.11-1.13,1.98-.34,2.42-.78,4.84-1.16,7.26-.35,2.29-.75,4.58-.99,6.9-.38,3.58-.44,7.18-.4,10.78,.04,3.52,.11,7.03,.21,10.54,.06,2.07,.22,4.15,.61,6.19,.68,3.48,1.39,6.96,2.16,10.41,.46,2.06,1.02,4.09,1.59,6.12,.42,1.5,.99,2.95,1.7,4.33,.1,.2,.16,.5,.54,.45,.2-.42,.1-.88,.1-1.33,0-4.44-.03-8.89-.02-13.33,0-1.06,.05-2.12,.14-3.17,.28-3.08,.56-6.15,.89-9.22,.21-1.98,.46-3.95,.76-5.92Z"/><path class="c" d="M454.01,177.79c-.17-.11-.43-.19-.62-.15-.62,.13-1.21,.34-1.83,.48-.55,.14-.78,.49-.79,1.03v1.82h-.05c-.03,.5-.04,1.01-.1,1.5-.11,.95,.29,1.61,1.14,1.95,.78,.32,1.58,.61,2.4,.76,2.75,.5,5.36,.17,7.7-1.49,.59-.42,.91-.92,.83-1.67-.08-.76-.11-1.53-.15-2.3q-.09-1.54-1.57-2.03c-.85-.28-1.66-.48-2.49,.09-1.48,1.01-2.97,.89-4.47,0Zm6.83,1.27c-.86,.86-1.92,1.26-3.05,1.33-1.41,.09-2.84,.09-4.25,0-.47-.03-.92-.46-1.33-.84,2.97,.9,5.81,.36,8.64-.48Z"/><path class="c" d="M553.89,174.76c-1.29-.66-1.86-1.82-1.83-3.27,.02-1.18,.64-1.97,1.68-2.46,.85-.4,1.7-.8,2.54-1.2l.02-.29c-.29-.15-.57-.38-.87-.42-2.57-.32-5.16,1.88-5.35,4.5-.17,2.44,1.89,4.57,4.52,4.7,.21-.72,.03-1.18-.71-1.56Z"/><path class="c" d="M450.97,185.17c-.13,1.15-.27,2.19-.36,3.23-.52,6.17-1.06,12.33-1.54,18.5-.29,3.72-.47,7.45-.74,11.17-.2,2.85-.47,5.7-.69,8.55-.11,1.38,.09,1.72,1.41,2.18,.92,.32,1.88,.52,2.82,.76,4.96,1.27,9.68,.79,14.18-1.78,.76-.43,.96-.91,.91-1.76-.28-4.89-.5-9.78-.74-14.67-.05-.58-.1-1.17-.15-1.76-.34-4.06-.61-8.13-1.05-12.18-.34-3.1-.85-6.17-1.38-9.25-.21-1.23-.66-2.42-1.01-3.68-3.83,2.23-7.64,2.35-11.65,.67Zm.47,10.27h.24c-.09,1.5-.18,3-.27,4.49-.56-1.11-.47-3.15,.03-4.49Zm-.05,30.54l-.35,.02c-.05-.55-.16-1.09-.14-1.64,.21-6.03,.43-12.05,.65-18.07,.03-.84,.1-1.67,.15-2.5h.23c-.07,7.39-.19,14.8-.54,22.19Zm.77-34.8l-.3-.03c.13-1.17,.26-2.34,.4-3.5,.68,1.25,.4,2.4-.1,3.53Zm1.63-1.27l.31-.02c-.17,6.58-.34,13.15-.51,19.73-.7-2.22-.43-17.23,.2-19.71Zm-.11,37.14v-3.93c.64,1.3,.66,2.61,0,3.93Zm1.03-7.38c-.42-1.05-.4-2.11-.05-3.19h.27l.15,3.17-.37,.02Zm2.14,7.03c-.01,.13-.11,.26-.18,.39l-.2-.03c-.64-13.07-1.14-26.14-.01-39.21h.36c0,.57,0,1.15,0,1.73-.09,7.04-.25,14.07-.24,21.11,0,4.63,.27,9.25,.4,13.88,.02,.71-.07,1.42-.12,2.13Zm2.15-27.65l-.23,.02c-.13-2.06-.26-4.11-.39-6.17,.83,.93,1.1,4.5,.62,6.15Zm-.87,6.13l.43-.04c.14,3.93,.28,7.85,.42,11.78l-.41,.02c-.29-3.91-.49-7.83-.44-11.76Zm1.48,23.61h-.28c-.19-2.14-.38-4.3-.57-6.46,.6,.66,.99,4.37,.84,6.46Zm1.44-38.8c.82,3.8,1.31,14.08,.59,14.84-.33-4.96-.64-9.79-.95-14.62,0-.05,.19-.12,.36-.22Zm1.14,35.88c-.1-.27-.27-.54-.29-.82-.18-3.19-.36-6.39-.5-9.58-.06-1.27-.05-2.54-.06-3.81,0-.28,.05-.56,.08-.83l.3-.02c.24,4.99,.47,9.99,.71,14.98l-.23,.08Zm1.81-14.38c.06,1.17,.11,2.33,.17,3.49h0c.03,.27,.07,.54,.09,.81,.15,2.84,.3,5.66,.46,8.5l-.3,.02c-.5-3.08-.7-6.19-.74-9.31-.04-1.01-.08-2.02-.12-3.03,0-1.27,0-2.54,0-3.8,0-.06,0-.11,.01-.17,0-.1,.01-.21,.01-.3,.02-.3,.04-.6,.05-.91h.17v.75c.07,1.32,.13,2.64,.19,3.95Zm-.4-7.89h-.22c-.15-2.72-.29-5.46-.44-8.31,.72,.59,1.12,6.93,.66,8.31Z"/><path class="c" d="M554.04,177.15c-.57-.08-1.13-.22-1.72-.34,.42,1.25,2.34,2.03,3.76,1.57,.93-.3,1.5-1.78,1.16-2.98-.47-1.62-1.82-2.36-3.62-1.89,.34,.25,.67,.42,.91,.68,.35,.37,.76,.76,.93,1.21,.48,1.3-.06,1.94-1.41,1.76Z"/><path class="c" d="M451.28,152.63c-.15-.1-.29-.22-.44-.32,.94,2.04,2.74,7.82,3.45,9.39,.46,1.01,.32,1.8-.48,2.56-.91,.86-1.31,1.97-1.32,3.21,0,1.27,.62,2.19,1.72,2.58,1.17,.41,2.36,.06,3.19-.96-.85-.4-1.68-.78-2.5-1.19-.54-.27-1.01-.67-.87-1.35,.15-.69,.65-1.1,1.36-1.13,.89-.04,1.78-.01,2.89-.01-.54-.48-.93-.94-1.43-1.23-.66-.38-1.01-.88-1.13-1.61-.23-1.37-.88-2.55-1.86-3.52-.86-.84-2.01-4.84-2.41-6.31-.06-.04-.11-.08-.17-.12Z"/><path class="c" d="M443.1,101.45c-.33-.08-.72-.01-1.05-.46h1.68q.2-.52,.11-.99c-.34-.28-.86-.12-1.19-.58,.5-.45,1.06-.07,1.52-.28,.23-.27,.32-.56,.09-.91-.41-.11-.83-.21-1.26-.34-.15-.05-.28-.15-.18-.41,.58-.27,1.23,.16,1.82-.02,.08-.15,.16-.25,.19-.37,.13-.52,.04-.74-.4-.87-.54-.15-1.09-.25-1.63-.41-.25-.07-.47-.22-.85-.4,.26-.09,.38-.17,.47-.15,.43,.07,.86,.16,1.29,.26,.31,.07,.61,.19,.92,.26,.36,.08,.6-.06,.65-.36,.05-.3-.09-.46-.36-.54-.19-.05-.36-.15-.53-.25-.05-.02-.06-.15-.05-.22,.02-.07,.09-.19,.13-.19,.27,0,.54,.03,.82,.03,.11,0,.23-.04,.41-.07,.08-.29,.16-.59,.22-.8-.22-.4-.74-.21-.76-.76,.34-.05,.69-.1,1.05-.15,.11-.19,.23-.36,.29-.55,.07-.19,.09-.4,.12-.55-.23-.4-.72-.57-.6-1.09,.34-.04,.69-.07,1.09-.11,.29-.73,.6-1.41,.84-2.11,.26-.74,.74-1.38,.79-2.28-.36-.21-.71-.4-1.05-.59-.21-.12-.44-.22-.63-.36-.07-.05-.11-.24-.08-.32,.03-.09,.17-.19,.26-.2,.15-.02,.32,0,.46,.07,.47,.21,.93,.45,1.45,.7,.11-.15,.22-.3,.33-.44-.35-.76-1.27-.79-1.6-1.59,.89-.27,1.34,.52,1.95,.74,.7-.58,1.59-1.81,1.92-2.65,.61-.19,.91-.64,.99-1.29,.64,.01,.9-.48,1.24-.97-.14-.19-.26-.34-.37-.5h0s-.09-.1-.14-.15c.09,0,.18-.01,.27-.03h0c.3,.08,.63,.26,.92,.04,.62-.5,1.27-.99,1.68-1.65-.06-.4-.56-.47-.42-.96,.38,.16,.74,.3,1.11,.46,.54-.42,1.06-.81,1.57-1.21,.05-.04,.05-.15,.08-.29-.25,0-.48-.03-.7,0-1.95,.25-3.82,.78-5.63,1.57-1.55,.67-3.05,1.43-4.4,2.52-.3,.25-.68,.44-.78,.89h0c.95,.37,.95,.38,1.51,1.07-.07,.23-.23,.19-.37,.12-.52-.24-.93-.6-1.14-1.19h0c-.19,.06-.39,.08-.53,.21-.78,.66-1.47,1.4-2.03,2.27-.09,.13-.12,.3-.19,.5,.18,.13,.33,.25,.49,.36,.29,.21,.6,.4,.87,.63,.09,.07,.1,.26,.17,.46-.83,.04-1.28-.64-1.97-.79-.42,.4-.69,.9-.87,1.45h.01s0,0,0,.01c.66,.18,1.39,.13,2,.68-.32,.48-.72,.36-1.09,.27-.47-.12-.89-.34-.91-.95h-.02c-.36,.53-.77,1.03-.85,1.65,.38,.59,1.11,.44,1.44,1.05-.68,.21-1.17-.38-1.83-.32-.65,.66-.99,1.55-1.32,2.45-.11,.29,.03,.56,.36,.69,.33,.15,.68,.25,1.01,.39,.13,.05,.3,.12,.21,.35-.38,.15-.7-.07-1.03-.2-.79-.32-1.09-.32-1.39,.73-.04,.15-.02,.32-.02,.35,.28,.54,.88,.36,1.17,.92-.56-.07-1.01-.13-1.52-.2-.08,.32-.15,.59-.21,.81,.64,.6,1.51,.48,2.19,1.11-.91,.25-1.62-.37-2.44-.27-.36,.5-.69,1.01-.32,1.7,.35-.06,.69-.05,1,.34-.42,.13-.7-.11-1.01-.23-.64,.21-.66,.78-.69,1.34,.6,0,1.17,.16,1.7,.48-.01,.09-.03,.17-.04,.25-.19-.03-.37-.07-.56-.09-.06-.02-.11-.05-.17-.08-.01,0-.02-.01-.03-.02,.01,0,.02,.01,.03,.02-.01,0-.02,0-.03-.02l-.91-.3c0-.08,0-.16,.01-.24,0,.08-.01,.16-.01,.24-.34,.29-.42,.72-.52,1.12-.33,1.35-.7,2.7-.95,4.06-.98,5.16-1.48,10.39-1.6,15.64-.13,5.8-.28,11.59-.1,17.4,.12,3.68,.29,7.36,.56,11.03,.05,.72,.13,1.44,.26,2.14,.38,2.03,2.13,3.46,3.99,3.24,1.23-.15,2.3-.76,3.14-1.71,.53-.6,.76-1.37,.61-2.27-.25-.04-.48-.12-.71-.11-.72,.03-1.43,.11-2.15,.17-.32,.03-.64,.06-.95,.04-.23-.02-.33-.2-.26-.52,.19-.06,.4-.17,.64-.19,.72-.07,1.43-.09,2.15-.14,.32-.02,.64-.03,.95-.09,.21-.03,.34-.2,.36-.44,.03-.26-.15-.51-.42-.51-.4,0-.79,.05-1.19,.11-.84,.13-1.67,.13-2.48-.15-.16-.05-.27-.17-.13-.46,.38-.01,.81-.05,1.25-.05,.79-.01,1.6,0,2.4-.02,.15,0,.32-.05,.3-.37-.17-.03-.35-.11-.54-.11-.56,.03-1.11,.11-1.67,.15-.5,.03-1.02,.13-1.53-.25,.85-.42,1.69-.4,2.52-.43,.36-.01,.72-.03,1.07-.07,.25-.03,.41-.28,.4-.54-.02-.26-.2-.46-.48-.48-.23-.01-.48,.02-.72,.02-.79,.01-1.6,.03-2.39,.03-.3,0-.65,.02-.88-.38,.17-.05,.31-.13,.46-.14,.87-.06,1.76-.17,2.63-.14,1.31,.03,1.5-.05,1.35-1.6-.11-1.18-.22-1.28-1.32-1.29-.88,0-1.76,0-2.64-.03-.12,0-.23-.14-.46-.29,.3-.1,.44-.16,.6-.19,.87-.19,1.74-.18,2.62-.13,.83,.04,.99-.15,1.01-1.01,0-.3-.01-.59-.02-.89-.04-1.61-.08-3.22-.12-4.82-1.43,0-2.86,.01-4.29,.01-.05,0-.11-.09-.25-.21,1.56-.38,3.05-.25,4.53-.02,0,.07,.01,.14,0,.21,0-.07,0-.15,0-.21-.01-.46-.01-.93-.04-1.39-.07-1.07-.23-1.2-1.27-1.1-.2,.02-.39,.07-.59,.09-.68,.03-1.35,.07-2.03,.09-.14,0-.32,.03-.36-.27,.12-.06,.25-.17,.38-.19,.75-.11,1.5-.21,2.25-.29,.32-.04,.64-.04,.95-.08,.27-.03,.42-.2,.46-.49,.03-.26-.15-.45-.44-.48-.2-.01-.4-.02-.6,0-.64,.05-1.27,.11-1.9,.19-.66,.07-1.32,.16-2.03,.07,.09-.13,.11-.24,.17-.26,1.53-.52,3.13-.45,4.61-.53,.4-.37,.36-.76,.39-1.14-1.61-.12-3.23-.24-4.84-.36-.05-.38,.19-.39,.36-.39,.55,0,1.11,0,1.66,.04,.95,.09,1.89,.21,2.83,.32h0c0-.64,0-1.27-.01-1.9-.01-.68-.02-1.36-.09-2.03-.06-.64-.25-.8-.85-.82-.79-.03-1.6,0-2.39-.01-.21,0-.43-.07-.64-.1,.15-.24,.32-.35,.5-.36,.64-.03,1.27-.03,1.91-.05,.32-.01,.64-.02,.95-.06,.3-.05,.44-.28,.45-.65,.01-.35-.15-.59-.46-.61-.28-.03-.56-.01-.83,0-1.2,.07-2.39,.16-3.58,.22-.25,.01-.58,.15-.76-.32,.61-.25,1.23-.33,1.85-.35,1-.03,1.99-.03,2.99-.06,.74-.03,.89-.21,.93-.99,0-.13,0-.25,0-.38-.03-.4-.21-.63-.59-.66-.52-.03-1.04,0-1.56-.03-.34-.01-.72,.05-1.01-.33,.32-.36,.73-.3,1.11-.32,.52-.03,1.04-.02,1.56-.07,.26-.02,.41-.22,.45-.5,.05-.33-.06-.57-.36-.7-.15-.06-.31-.06-.47-.09-.79,.05-1.58,.08-2.4-.21,.52-.29,.52-.3,1.23-.28,.39,.02,.79,.07,1.19,.1h0c.07,0,.15,0,.23-.01,.57-.11,.64-.21,.6-.78,0-.11-.08-.22-.12-.33-.93,.05-1.87,.03-2.89-.28,.95-.32,1.44-.31,2.96,.03,.04-.48,.09-.95,.13-1.42-.15-.12-.29-.23-.44-.34-.91-.02-1.82-.04-2.73-.07-.05,0-.09-.11-.21-.24,.21-.05,.39-.13,.56-.13,.68,0,1.34,.05,2.02,.07,.54,.01,.66-.11,.77-.72,.02-.13,0-.25,0-.38-.74-.05-1.48-.09-2.23-.15-.03,0-.05-.06-.07-.09,0-.24,.17-.28,.32-.27,.67,.03,1.33,.09,2,.13,0-.17,.02-.34,0-.5-.05-.78-.13-.87-.82-.97-.51-.07-1.01-.11-1.68-.39,.92-.27,1.68,.11,2.42-.13,.06-.19,.13-.34,.16-.5,.04-.21,.07-.42,.07-.63,.03-.64-.13-.83-.72-.91-.75-.1-1.5-.18-2.25-.28-.15-.02-.32-.07-.25-.37,.45-.13,.92-.05,1.39,.02,.47,.08,.94,.17,1.42,.23,.32,.04,.47-.14,.48-.55,0-.12-.07-.24-.13-.42-.29-.05-.6-.1-.91-.15-.59-.09-1.19-.17-1.78-.28-.13-.02-.23-.15-.5-.32,.81-.23,1.42-.11,2.05-.02,.35,.05,.72,.11,1.07,.07,.13-.01,.29-.26,.34-.44,.06-.23-.12-.4-.33-.44-.43-.07-.87-.08-1.31-.16-.21-.03-.49,0-.54-.42,.28,0,.56-.03,.83-.03,.36,.01,.72,.05,1.07,.07,.38,.01,.56-.13,.61-.45,.05-.32-.09-.51-.46-.6Zm10.37-25.25s.14-.1,.2-.09c.49,.14,.89,.4,1.22,1.08-.78,.01-1.15-.24-1.43-.66-.05-.08-.02-.23,.01-.33Zm-1.07,.74c.1,.04,.19,.14,.28,.22l.03,.29c-.1-.02-.19-.04-.29-.06h0c-.07-.04-.16-.06-.2-.12-.06-.09-.09-.2-.13-.31,.11,0,.22-.05,.31-.01Zm-.31,2.3h0c.09,.07,.18,.15,.27,.22h0c.12,.1,.23,.21,.35,.31l.07,.03-.02,.02-.05-.05-.47-.18-.25-.24q-.06-.12,.11-.12Zm-.79,1.34c.06,.01,.11,.09,.17,.14,.1,.12,.2,.24,.29,.36h.04v.03l-.04-.03c-.17-.05-.35-.1-.52-.15h0s-.08-.03-.09-.06c-.05-.09-.09-.19-.13-.28,.1,0,.2-.03,.29-.01Zm-1.05-.62c.05,.04,.1,.09,.15,.13-.05,.04-.09,.08-.14,.11-.01,0-.08-.05-.07-.07,0-.06,.04-.12,.06-.18Zm-.54,1.78c.1,.06,.21,.1,.29,.17,.04,.04,.03,.13,.04,.2-.07,0-.15,.04-.2,.02-.1-.05-.18-.13-.27-.2-.07-.17-.03-.24,.15-.19h0Zm-2.63,4.4c.34,.11,.33,.13,.62,.69-.56,.14-.99-.05-1.35-.47-.04-.05,.04-.3,.06-.3,.22,0,.46,.02,.67,.09Zm-.76-4.84l-.16,.17c.05-.06,.11-.11,.16-.17,.43,.12,.81,.31,1.07,.68-.08,.29-.27,.24-.38,.16-.29-.2-.56-.45-.84-.67l.16-.17Zm-.71,6.73c.3-.37,.64-.11,.96-.06,.07,.01,.16,.04,.21,.1,.08,.08,.19,.19,.19,.27,0,.08-.15,.17-.24,.22-.06,.03-.15,0-.28,0-.28-.08-.67-.01-.86-.42-.01-.03,0-.09,.02-.11Zm.41,2.21h.03v.02l-.03-.02c-.34-.09-.68-.16-1-.27-.13-.04-.22-.18-.42-.36,.77-.27,1.14,.08,1.42,.63Zm-1.15,1.72c-.58,.27-.94,.1-1.3-.18,.42-.28,.78-.08,1.3,.18Zm-.89,1.61c-.35,.2-.59,.09-.89-.17,.34-.13,.59-.15,.89,.17Zm-2.12-4.92c.44,0,.86,.02,1.23,.5-.59,.1-.96-.08-1.23-.5Zm-.28,53.18c-.4,.4-.9,.27-1.34,.36-.33,.06-.7,.15-1-.17,1-.5,1.55-.55,2.34-.19Zm-3.84-3.68c.22-.07,.35-.15,.48-.15,1.02-.02,2.05-.1,3.06,.22-.97,.42-2.63,.37-3.54-.07Zm4.02-3.38c.14,0,.27,.12,.41,.19-.08,.11-.12,.22-.16,.22-1.3,0-2.6,0-3.9-.01-.09,0-.18-.11-.52-.34,1.58-.2,2.87-.14,4.17-.05Zm-2.66-11.96c.67,0,1.34,.05,2.01,.11,.08,0,.15,.16,.29,.32-.93,.43-1.84,.26-2.72,.23-.16,0-.31-.16-.48-.25,.26-.41,.6-.41,.91-.41Zm-.92,1.84c.99-.05,1.97-.09,2.96-.11,.26,0,.53,.06,.8,.09-.92,.48-3.39,.52-4.54,.24,.35-.11,.57-.22,.78-.23Zm-.34-24.62c.29-.2,.51-.08,.71,.15q-.31,.12-.71-.15Zm3.88-3.16c-.06,.02-.14-.05-.21-.08l.18-.19,.25,.1c-.08,.06-.14,.15-.23,.17Z"/><path class="c" d="M456.63,173.31c.24-.25,.56-.42,.91-.68-1.81-.47-3.15,.26-3.62,1.89-.34,1.21,.23,2.68,1.16,2.98,1.41,.46,3.33-.32,3.76-1.57-.59,.12-1.15,.26-1.72,.34-1.35,.19-1.89-.46-1.41-1.76,.17-.45,.58-.83,.93-1.21Z"/><path class="c" d="M452.18,171.06c.28-1.1-.13-1.87-.74-2.76-.87,1.62-1.29,3.22-.54,4.94,.38,.89,1.01,1.5,2.03,1.64,.41-.76,.22-1.36-.19-2.03-.32-.54-.7-1.27-.56-1.79Z"/><path class="c" d="M458.08,171.65v-1.58c-1.63,1.13-3.29,1.26-5.03,.56-.07,.07-.13,.13-.19,.19,.29,.65,.58,1.3,.91,2.05,1.31-1.36,2.72-1.62,4.31-1.21Z"/><path class="c" d="M455.74,166.24c-.3,.03-.58,.27-.87,.42l.02,.29c.85,.4,1.7,.79,2.54,1.2,1.03,.5,1.66,1.29,1.68,2.46,.03,1.44-.55,2.61-1.83,3.27-.74,.38-.91,.84-.71,1.56,2.64-.13,4.7-2.27,4.52-4.7-.19-2.62-2.78-4.82-5.35-4.5Z"/><path class="c" d="M536.73,112.2c-.15,.05-.3,.09-.46,.14,.2,.09,.36,.07,.46-.14Z"/><path class="c" d="M485.86,132.82c-.68,.21-1.35,.43-2.02,.65-1.84,.62-3.71,1.04-5.66,1.13-2.76,.13-5.52,.1-8.28-.09-.37-.03-.74-.08-1.34-.15,1.02,.61,1.9,.93,2.83,1.12,1.87,.4,3.76,.34,5.66,.33,3.22,0,6.23-.86,9.17-2.06,.4-.16,.77-.4,1.13-.63,.11-.07,.18-.22,.39-.48-.75-.02-1.32-.02-1.88,.16Z"/><path class="c" d="M533.74,135.01c-1.98-.04-3.94-.22-5.83-.85-.86-.28-1.73-.55-2.59-.83-.75-.25-1.52-.38-2.41-.38,.11,.21,.14,.37,.25,.45,.28,.21,.58,.41,.9,.55,1.74,.75,3.52,1.37,5.38,1.77,2.49,.54,5.01,.54,7.54,.42,1.42-.07,2.82-.33,4.13-.93,.17-.08,.38-.11,.42-.44-.48,.04-.94,.08-1.4,.11-.67,.05-1.34,.12-2.01,.13-1.46,.02-2.92,.03-4.38,0Z"/><path class="c" d="M465.45,123.71c-.62-1.37-1.05-2.8-.78-4.5-.06-.66-.13-1.48-.2-2.3-.15-1.7-.76-3.28-1.3-4.88-.29-.86-.79-1.63-1.39-2.31-.93-1.06-2.05-1.24-3.3-.57-1.25,.67-1.85,1.79-2.14,3.1-.2,.93-.21,1.87-.11,2.81,.13,1.21,.31,2.41,.47,3.62,.17,1.29,.52,2.53,.98,3.75,.37,.95,.69,1.92,1.08,2.86,.4,.94,.84,1.86,1.32,2.76,.62,1.16,1.51,2.11,2.53,2.93,.46,.37,.96,.68,1.55,.84,1.72,.47,3.42-.68,3.62-2.42,.09-.77-.13-1.45-.51-2.13-.65-1.16-1.29-2.34-1.84-3.56Z"/><path class="c" d="M544.68,132.08c.87,.28,1.73,.22,2.51-.26,.47-.29,.91-.63,1.31-1,1.38-1.23,2.31-2.78,3-4.47,.53-1.31,1.01-2.64,1.51-3.96,.94-2.53,1.13-5.2,1.34-7.86,0-.39,.02-.79,0-1.18-.05-.96-.37-1.84-.89-2.65-.44-.69-1.07-1.15-1.82-1.45-.79-.31-1.57-.27-2.24,.26-.37,.29-.7,.64-.98,1.01-1.2,1.62-1.63,3.55-2.11,5.45-.35,1.37-.39,2.8-.3,4.21,.05,.79-.09,1.56-.33,2.32-.51,1.66-1.28,3.21-2.15,4.7-.22,.37-.45,.75-.6,1.14-.59,1.52,.21,3.21,1.75,3.72Z"/><path class="c" d="M480.75,117.18c2.24,2.11,4.34,4.34,6.21,6.78,.09,.12,.17,.32,.47,.25-.83-1.72-1.82-3.26-3.12-4.59-.94-.96-1.9-1.88-2.87-2.81-1.86-1.78-4-3.18-6.27-4.39-.23-.12-.27,.21,0,.4,1.96,1.33,3.86,2.74,5.58,4.36Z"/><path class="c" d="M558.11,171.51c-1.74,.7-3.4,.58-5.03-.56v1.58c1.6-.41,3-.15,4.31,1.21,.33-.74,.62-1.4,.91-2.05-.06-.07-.12-.13-.19-.19Z"/><path class="c" d="M557.15,178.68c-1.5,.9-2.99,1.02-4.47,0-.83-.57-1.64-.38-2.49-.09q-1.48,.48-1.57,2.03c-.05,.77-.07,1.54-.15,2.3-.08,.75,.24,1.25,.83,1.67,2.34,1.66,4.95,1.99,7.7,1.49,.82-.15,1.63-.44,2.4-.76,.85-.34,1.25-1.01,1.14-1.95-.06-.5-.07-1-.1-1.5h-.05v-1.82c0-.54-.24-.89-.79-1.03-.62-.15-1.21-.36-1.83-.48-.19-.04-.45,.05-.62,.15Zm.47,2.59c-1.41,.09-2.84,.1-4.25,0-1.14-.07-2.2-.47-3.05-1.33,2.83,.85,5.67,1.38,8.64,.48-.41,.37-.86,.81-1.33,.84Z"/><path class="c" d="M548.55,185.39c-.36,1.26-.8,2.45-1.01,3.68-.53,3.07-1.05,6.15-1.38,9.25-.44,4.05-.71,8.11-1.05,12.18-.05,.58-.09,1.17-.15,1.76-.24,4.89-.46,9.78-.74,14.67-.05,.85,.15,1.32,.91,1.76,4.49,2.57,9.21,3.05,14.18,1.78,.94-.25,1.9-.44,2.82-.76,1.32-.46,1.52-.8,1.41-2.18-.22-2.85-.49-5.7-.69-8.55-.27-3.72-.45-7.45-.74-11.17-.48-6.17-1.01-12.33-1.54-18.5-.09-1.05-.23-2.09-.36-3.23-4,1.68-7.82,1.56-11.65-.67Zm-.94,27.48c-.04,1.01-.08,2.02-.12,3.03-.04,3.12-.24,6.23-.74,9.31l-.3-.02c.15-2.84,.3-5.66,.46-8.5,.03-.27,.06-.54,.09-.81h0c.06-1.16,.11-2.33,.17-3.49,.07-1.32,.13-2.64,.19-3.95v-.75h.17c.01,.3,.03,.6,.05,.91,0,.1,0,.21,.01,.3,0,.06,0,.11,.01,.17,0,1.27,0,2.54,0,3.8Zm.18-8.36h-.22c-.46-1.4-.06-7.74,.66-8.33-.15,2.86-.3,5.59-.44,8.33Zm5-10.72c-.13,2.06-.26,4.11-.39,6.17l-.23-.02c-.48-1.66-.21-5.22,.62-6.15Zm-3.02,22.57c-.15,3.19-.32,6.39-.5,9.58-.02,.28-.19,.55-.29,.82l-.23-.08c.24-4.99,.47-9.99,.71-14.98l.3,.02c.03,.28,.08,.56,.08,.83,0,1.27,0,2.54-.06,3.81Zm-.24-10.65c-.72-.76-.23-11.04,.59-14.84,.16,.1,.36,.16,.36,.22-.3,4.83-.62,9.66-.95,14.62Zm2.31,23.98h-.28c-.15-2.11,.24-5.81,.84-6.48-.19,2.16-.38,4.32-.57,6.48Zm.77-11.87l-.41-.02c.14-3.93,.28-7.85,.42-11.78l.43,.04c.04,3.93-.15,7.84-.44,11.76Zm7.13-21.51c.5,1.34,.59,3.38,.03,4.49l-.27-4.48h.24Zm-5.02,31.62l-.2,.03c-.06-.13-.16-.25-.18-.39-.06-.71-.14-1.42-.12-2.13,.13-4.63,.4-9.25,.4-13.88,.01-7.04-.15-14.07-.24-21.11,0-.58,0-1.16,0-1.74h.36c1.13,13.08,.63,26.15-.01,39.22Zm1.76-7.39l-.37-.02,.15-3.18h.27c.35,1.09,.37,2.16-.05,3.2Zm1.03,7.38c-.66-1.31-.64-2.62,0-3.93v3.93Zm.09-17.44c-.17-6.58-.34-13.15-.51-19.73l.31,.02c.63,2.48,.9,17.49,.2,19.71Zm1.33-21.97c.13,1.17,.26,2.34,.4,3.5l-.3,.03c-.5-1.13-.78-2.28-.1-3.53Zm1.22,38.36l-.35-.02c-.36-7.4-.48-14.8-.54-22.2h.23c.05,.85,.12,1.68,.15,2.51,.22,6.02,.45,12.05,.65,18.07,.02,.54-.09,1.09-.14,1.64Z"/><path class="c" d="M557.3,159.94c-.98,.97-1.63,2.15-1.86,3.52-.13,.73-.48,1.23-1.13,1.61-.5,.28-.89,.75-1.43,1.23,1.12,0,2.01-.03,2.89,.01,.71,.03,1.21,.44,1.36,1.13,.14,.68-.33,1.08-.87,1.35-.82,.42-1.66,.79-2.5,1.19,.83,1.02,2.03,1.37,3.19,.96,1.1-.39,1.72-1.31,1.72-2.58,0-1.25-.41-2.35-1.32-3.21-.8-.76-.93-1.55-.48-2.56,.75-1.65,2.71-7.97,3.59-9.68-.23,.18-.46,.37-.7,.54-.34,1.27-1.56,5.62-2.46,6.5Z"/><path class="c" d="M558.42,173.73c-.4,.67-.6,1.27-.19,2.03,1.02-.14,1.65-.76,2.03-1.64,.74-1.72,.33-3.31-.54-4.94-.6,.89-1.02,1.66-.74,2.76,.13,.52-.25,1.25-.56,1.79Z"/><path class="c" d="M555.91,123.1c1.48-2.67,2.42-5.51,2.7-8.55,.04-.43,.08-.87,0-1.29-.12-.61-.3-1.21-.54-1.78-.21-.49-.76-.65-1.31-.51-.35,.09-.5,.35-.5,.95,0,.31,.05,.62,.08,.93,.04,.39,.13,.78,.13,1.16,.02,3.07-.23,6.09-1.5,8.95-.25,.56-.47,1.14-.62,1.92,.74-.57,1.18-1.15,1.54-1.79Z"/><path class="c" d="M438.74,62.08c.36-.13,.73-.21,1.1-.31-.29-.3-.5-.7-.64-1.27-.19-.73-.26-1.5-.34-2.25-.13-1.22-.18-2.45-.34-3.66-.18-1.27-.22-2.54-.24-3.81-2.68,1.41-5.34,2.84-8.04,4.21-.44,.22-5.42,3.55-6.23,4.54-.7,.85-1.11,1.83-1.24,2.97-.21,1.97-.46,3.93-.67,5.91-.06,.58-.07,1.18-.05,1.77,.01,.46,.15,.91,.46,1.27,.21,.24,.52,.26,.75,.07,.3-.24,8.18-5.82,10.99-7.35,1.46-.79,2.93-1.56,4.49-2.09Zm-4.55-7.13c.3-.15,.67-.17,1-.25-.14,.13-.26,.29-.43,.38-2.09,1.13-7.86,4.49-8.43,4.79,.05-.16,5.94-4,7.86-4.91Zm-.64,4.07v0Zm-8.14,3.27c.13-.16,4.03-2.72,4.95-3.21,.63-.33,2.15-.93,2.15-.93,0,0-.87,.62-1.24,.85-1.13,.68-2.28,1.35-3.4,2.04-.16,.1-1.59,.75-2.08,1.1-.16,.12-.33,.22-.5,.32,.03-.07,.07-.13,.11-.18Zm-.4,1.48c.12-.16,2.95-2.04,3.34-2.25,1.32-.7,2.63-1.41,3.96-2.09,.37-.18,.78-.26,1.17-.39-.34,.25-.68,.51-1.04,.71-.95,.53-1.93,1.01-2.88,1.55-.88,.5-1.74,1.03-2.6,1.57-.1,.07-1.34,.61-1.83,.89-.05,.03-.11,.06-.16,.09,.01-.02,.02-.05,.04-.07Zm1.84,.7c.42-.23,.83-.5,1.25-.75,2.07-1.21,4.19-2.29,6.4-3.17,.17-.07,.4-.33,.64,.07-.4,.22-.79,.43-1.17,.64-2.34,1.27-4.69,2.54-7.03,3.82-.32,.17-1.65,.89-1.95,1.09-.23,.15-.46,.31-.68,.49,.07-.36,2.39-2.09,2.54-2.18Zm-2.92,4.62c.1-.27,4.74-3.84,5.78-4.48,2.2-1.39,4.47-2.63,6.93-3.44,.32-.11,.65-.27,1.14-.18-.38,.44-.81,.54-1.2,.72-3.75,1.64-12.59,7.63-12.68,7.69,0-.11,0-.21,.03-.31Z"/><path class="c" d="M494.42,72.26c2.39,.07,4.79,.13,7.18,.19,.09-.07,.18-.15,.26-.22,0-.64,.02-1.27,.02-1.9,0-2.9,0-5.8,0-8.71-.94,.09-1.86,.27-2.78,.54-1.58,.46-3.14,.99-4.69,1.54-.37,.13-.75,.26-1.12,.4-.07,2.2-.15,4.39-.22,6.59-.05,1.46,0,1.53,1.34,1.57Z"/><path class="c" d="M473.21,69.72c3.6,.56,7.18,1.27,10.77,1.87,2.21,.37,4.43,.66,6.68,.62,1.29-.02,1.35-.07,1.4-1.42,.08-2.11,.15-4.22,.22-6.33-2.43,.86-4.86,1.71-7.35,2.38-2.9,.79-5.8,1.59-8.72,2.29-.99,.24-2,.43-3,.59Z"/><path class="c" d="M443.79,40.93c.01-.14,.08-.34-.16-.37-.59,1.46-.73,3.89-.37,6.33,.22,4.1,1.27,8,2.56,11.84,.6,1.8,1.72,3.23,3.14,4.4,1.31,1.07,2.73,1.93,4.25,2.58,.73,.31,1.52,.51,2.3,.68,1.3,.27,2.63,.25,3.94,.18,2.47-.14,4.94-.29,7.42-.41,2.08-.1,4.15-.31,6.19-.73,1.45-.29,2.89-.68,4.34-.96,2.73-.52,5.37-1.32,7.88-2.58,3.08-1.54,6.02-3.31,8.57-5.76,1.93-1.86,3.37-4.04,4.24-6.66,1.39-4.22,1.89-8.55,1.66-13.01-.06-1.25-.39-2.41-.99-3.49-.78-1.38-1.94-2.33-3.19-3.18-.04-.03-.14,.05-.29,.1,.2,.28,.36,.56,.57,.79,1.8,1.9,2.57,4.22,2.6,6.88,.03,3.8-.4,7.52-1.58,11.12-.61,1.86-1.47,3.55-2.69,5.06-1.29,1.59-2.83,2.86-4.46,4.01-1.73,1.23-3.62,2.17-5.52,3.05-2.2,1.03-4.48,1.82-6.84,2.27-2.05,.39-4.1,.72-6.15,1.05-.67,.11-1.34,.22-2.02,.26-1.79,.09-3.59,.15-5.38,.2-2.57,.07-5.1-.34-7.61-.85-2.96-.59-5.33-2.27-7.17-4.73-2.68-3.6-4.71-7.55-5.42-12.15-.21-1.64-.12-3.28,.09-4.91,.04-.33,.1-.67,.13-1Z"/><path class="c" d="M509.6,62.72c-.88-.32-1.78-.56-2.69-.74,.02,2.81,.04,5.62,.07,8.43,0,.46,.04,.93,.11,1.39,.05,.4,.26,.56,.66,.61,.2,.03,.4,.03,.6,.03,2.07-.02,4.15-.05,6.23-.07,.28,0,.56-.03,.83-.11,.3-.07,.48-.3,.5-.64,0-.17,0-.34,0-.5-.08-2.03-.17-4.06-.25-6.1-.24-.1-.49-.19-.73-.3-1.74-.75-3.52-1.36-5.3-2.02Z"/><path class="c" d="M514,2.7c.1,2.24,.2,4.48,.3,6.72,.19,4.52,.38,9.05,.58,13.57,.06,1.45,.13,2.89,.19,4.34,.92-.45,1.84-.88,2.78-1.27,1.17-.48,2.36-.76,3.61-.87,1.79-.16,3.57-.42,5.37-.59,2.27-.22,4.55-.22,6.82-.01,2.79,.25,5.57,.53,8.31,1.12,2.86,.61,5.7,1.29,8.55,1.96,.74,.17,1.47,.41,2.17,.7,2.09,.84,4.11,1.87,6.06,3.03,3.56,2.12,5.7,5.33,6.61,9.51,.14,.66,.26,1.33,.39,1.99,.32,1.66,.31,1.69,1.82,2.07,1.02,.26,1.96,.71,2.88,1.23,.25,.14,.48,.32,.7,.48,.76,.56,1.26,1.32,1.39,2.29,.12,.92,.21,1.85,.18,2.77,0,.02,0,.04,0,.06,.21,.02,.43,.02,.62,.1,.79,.31,1.56,.64,2.33,.99,1.58,.71,3.15,1.42,4.74,2.14,.19,.07,.3,.05,.26-.21-.25-.67-.45-1.36-.74-2-1.43-3.17-2.99-6.27-4.79-9.23-3.44-5.66-6.98-11.25-11.14-16.36-2.64-3.25-5.46-6.31-8.56-9.06-4.06-3.61-8.57-6.5-13.35-8.92-5.46-2.76-11.16-4.82-17.03-6.39-3.21-.86-6.43-1.68-9.72-2.15-1.17-.17-1.42,.05-1.36,1.32,.01,.21,.03,.42,.03,.64Z"/><path class="c" d="M572.08,52.62c-.09-1.03-.16-2-.26-2.96-.11-1.04-.61-1.84-1.48-2.31-.89-.47-1.82-.85-2.74-1.26-.18-.08-.39-.1-.58-.13-.49-.07-.74,.14-.82,.68-.03,.25-.03,.5-.05,.76-.07,.97-.12,1.94-.22,2.91-.3,2.9-.6,5.8-.94,8.69-.13,1.09,.12,2.01,.82,2.8,.8,.91,2.7,1.36,3.79,.89,.46-.2,.83-.51,1.03-1.01,.12-.31,.23-.63,.29-.96,.13-.7,.24-1.41,.34-2.12,.28-2.01,.55-4.01,.82-5.97Z"/><path class="c" d="M563.99,59.98c.02-.15,.08-.33-.19-.44-.18,.31-.36,.63-.55,.94-.99,1.6-2.15,3.03-3.67,4.11-2.77,1.97-5.79,3.19-9.1,3.59-1.82,.22-3.64,.5-5.46,.76-.48,.02-.96,.02-1.43,.07-1.11,.14-2.21,.12-3.32,0-2.25-.23-8.61-1.06-8.82-1.11-.78-.19-1.56-.36-2.34-.52-2.52-.51-4.96-1.26-7.32-2.34-2.32-1.06-4.49-2.4-6.64-3.79-1.71-1.1-3.25-2.45-4.55-4.09-.49-.61-1.06-1.15-1.57-1.74-.9-1.03-2.01-1.68-3.27-2.01-.89-.23-1.81-.39-2.72-.43-1.5-.08-2.94,.26-4.23,1.13-.47,.32-.96,.62-1.4,.98-1.72,1.38-3.41,2.8-5.15,4.16-1.02,.8-2.06,1.6-3.18,2.25-3.59,2.11-7.39,3.63-11.45,4.37-.78,.14-1.56,.34-2.34,.51-.82,.18-1.64,.39-2.46,.52-2.77,.45-5.57,.52-8.36,.73-1.51,.11-3.03,.19-4.55,.16-1.43-.03-2.88-.08-4.29-.33-2.99-.55-5.54-2.13-7.84-4.15-.99-.87-1.79-1.93-2.38-3.15-.61-1.26-.54-1.3-2.02-1.29-1.23,.01-1.53-.23-1.98-1.42-.06-.16-.12-.31-.16-.48-.38-1.86-.77-3.72-1.12-5.59-.09-.45-.08-.93-.06-1.39,.04-.84,.43-1.44,1.21-1.7,.3-.1,.6-.21,1.04-.37,0-.42,.03-.75,0-1.08-.03-.34-.26-.53-.56-.55-1.31-.11-2.39,.83-2.43,2.19-.03,1.52-.02,3.05,.06,4.57,.1,1.77,.28,3.54,.44,5.31,.05,.55,.1,1.1,.21,1.64,.21,1.09,.57,1.41,1.63,1.49,.68,.05,1.36,.08,2.04,.08,1.02,0,1.84,.35,2.52,1.21,1,1.29,2.26,2.25,3.67,3.01,.35,.19,.7,.4,1.05,.61,2.76,1.67,5.75,2.49,8.89,2.78,2.47,.23,4.94,.22,7.42,.06,2.64-.18,5.26-.45,7.84-1.03,3.28-.75,6.52-1.65,9.77-2.51,2.99-.78,5.88-1.89,8.81-2.89,1.56-.53,3.12-1.04,4.68-1.56,3.06-1.02,6.16-.96,9.23-.16,3.45,.91,6.81,2.17,10.09,3.62,.7,.31,1.39,.65,2.12,.88,2.68,.83,5.37,1.62,8.12,2.19,1.22,.25,5.17,.97,5.22,.98h.01l.1,.02c.07,.01,.86,.13,1.17,.16,1.82,.16,3.64,.37,5.47,.44,1.71,.07,3.42,0,5.13-.02,3.31-.26,6.59-.67,9.8-1.56,2.54-.71,4.81-1.99,6.92-3.65,1.33-1.06,2.03-2.45,2.24-4.17Z"/><path class="c" d="M502.91,61.56c0,2.94,0,5.89,0,8.83,0,.46,.01,.93,.07,1.39,.05,.38,.3,.61,.65,.62,.52,.02,1.04,.02,1.56-.02,.52-.05,.71-.25,.73-.81,.03-.93,.03-1.86,.02-2.8-.01-2.32-.03-4.64-.05-6.97-.64-.09-1.28-.17-1.92-.23-.36-.03-.71-.03-1.06-.03Z"/><path class="c" d="M445.01,46.95s-.06,.02-.15,.05c.04,.23,.06,.48,.12,.72,.21,.8,.98,3.48,1.04,3.68,.02,.05,.24,.61,.33,.81,1.27,2.87,2.97,5.41,5.23,7.51,1.34,1.24,2.82,2.28,4.58,2.65,1.92,.4,3.86,.79,5.8,.9,2.79,.16,5.59,.09,8.37-.33,1.5-.23,3-.52,4.5-.74,2.66-.39,5.26-1.03,7.74-2.15,1.21-.54,2.4-1.15,3.6-1.74,1.93-.96,3.69-2.2,5.31-3.66,1.69-1.53,3.01-3.37,3.83-5.6,1.48-4.06,2.01-8.26,1.76-12.59-.07-1.26-.44-2.41-1.11-3.44-.08-.12-.22-.19-.39-.32-.23,.53-.13,1-.12,1.45,.1,3.84-.29,7.61-1.39,11.28-.62,2.09-1.51,4-2.86,5.67-1.17,1.46-2.52,2.73-4.01,3.79-1.19,.85-2.44,1.6-3.7,2.34-3.14,1.84-6.51,3.01-10.06,3.57-.59,.09-1.19,.18-1.77,.33-3.17,.84-6.42,.78-9.65,.91-.32,.02-.64-.02-.96-.07-1.54-.23-3.09-.42-4.62-.71-1.94-.36-3.63-1.28-5.03-2.75-1.76-1.87-3.29-3.92-4.46-6.27-.13-.26-.44-.91-.45-.96-.06-.19-.13-.39-.18-.59-.03-.1-.91-2.66-1.19-3.65,0-.03-.06-.06-.09-.07Z"/><path class="c" d="M516.69,65.46c.01,.27,.02,.54,.03,.81,.07,1.61,.14,3.21,.23,4.82,.05,.99,.17,1.14,1.05,1.14,1.44,.01,2.89,.09,4.31-.09,3.09-.37,6.17-.86,9.25-1.34,1.22-.19,2.43-.45,3.65-.67-.21-.03-.42-.06-.63-.1-2.44-.43-4.89-.79-7.32-1.32-3.61-.79-7.13-1.88-10.58-3.25Z"/><path class="c" d="M506.64,26.44c.32,.02,.65,.03,.97,.07,.52,.05,1.04,.12,1.54,.24,1,.25,1.85,.78,2.4,1.75,.09,.14,.19,.27,.28,.4,.5,.03,.85-.29,1.23-.5,.34-.2,.69-.36,1.04-.54-.15-3.66-.31-7.33-.45-10.99-.2-4.95-.38-9.9-.56-14.84,0-.21-.01-.42-.04-.64-.09-.75-.26-.96-.98-1.02-1.47-.13-2.95-.21-4.42-.3-.24-.01-.48,0-.72,.05-.26,.04-.45,.21-.47,.5-.04,.5-.06,1.01-.05,1.52,.05,5.16,.13,10.33,.17,15.49,.02,2.94,.04,5.88,.07,8.82Z"/><path class="c" d="M505.68,26.41c-.03-7.8-.06-15.59-.09-23.39,0-.72-.02-1.44-.08-2.16-.05-.62-.25-.79-.83-.85-.2-.02-.4-.01-.6,0-1.12,.05-1.24,.17-1.27,1.32,0,.25,0,.51,0,.76,.02,8.14,.03,16.28,.05,24.42,.94-.07,1.89-.11,2.83-.1Z"/><path class="c" d="M511.65,33.92c-.07-.03-.14-.05-.2-.08-1.12,1.39-1.53,3.03-1.6,4.81-.15,3.89,.36,7.67,1.59,11.35,.87,2.6,2.35,4.68,4.34,6.42,2.52,2.22,5.41,3.74,8.4,5.08,1.92,.86,3.91,1.5,5.96,1.88,1.92,.36,3.86,.68,5.79,1.01,.51,.09,1.02,.2,1.54,.22,1.87,.11,3.75,.18,5.62,.26,1.48,.07,2.95-.05,4.41-.3,.87-.15,1.73-.31,2.6-.43,1.13-.16,2.15-.6,3.14-1.17,1.38-.8,2.54-1.89,3.62-3.09,1.96-2.17,3.43-4.66,4.43-7.47,.24-.84,.51-1.68,.72-2.53,.17-.65,.27-1.32,.4-1.97,0-.04,0-.09-.03-.12-.01-.03-.06-.02-.12-.04-.47,1.56-.94,3.11-1.41,4.67-1.21,2.7-2.83,5.09-4.78,7.24-1.6,1.77-3.52,2.88-5.82,3.24-.55,.09-1.11,.15-1.66,.27-3.54,.75-7.08,.37-10.61,0-1.46-.15-2.9-.59-4.36-.83-2.86-.46-5.62-1.27-8.23-2.58-2.75-1.38-5.38-2.93-7.7-5.08-2.41-2.24-4.12-4.91-4.92-8.22-.13-.53-.27-1.06-.4-1.59-.87-3.6-1.05-7.26-.73-10.95Z"/><path class="c" d="M436.87,50.28c.45-.23,.92-.42,1.39-.6,0-.35,0-.7,0-1.04,0-.21,.01-.42,.04-.64,.1-1.05,.59-1.83,1.51-2.26,.44-.2,.9-.32,1.36-.47,.3-.1,.6-.19,.97-.3,.04-.45,.1-.87,.12-1.28,.08-1.84,.48-3.6,1.04-5.33,.45-1.38,1.18-2.58,2.14-3.63,3.92-4.29,8.58-7.27,13.99-8.97,4.62-1.44,9.34-2.22,14.13-2.62,3.53-.29,7.02,0,10.52,.46,.87,.12,1.75,.16,2.62,.32,.78,.15,1.56,.35,2.31,.64,1.58,.62,3.11,1.35,4.59,2.19,.06-1.73,.12-3.47,.18-5.2,.08-2.29,.17-4.57,.26-6.86,.15-4.1,.3-8.2,.46-12.31,.06-1.5-.21-1.56-1.38-1.35-2.68,.47-5.32,1.16-7.96,1.87-7.19,1.93-14.12,4.58-20.64,8.37-3.84,2.23-7.46,4.78-10.72,7.86-3.11,2.93-5.98,6.11-8.65,9.49-2.46,3.13-4.63,6.48-6.83,9.81-2.82,4.27-5.38,8.71-7.55,13.39-.26,.57-.46,1.17-.68,1.76,0,0,.85-.21,1.21-.39,1.85-.97,3.71-1.95,5.58-2.91Z"/><path class="c" d="M495.45,27.89c.17,.11,.35,.2,.54,.31,.15-.05,.31-.07,.45-.15,1.71-.92,3.56-1.28,5.44-1.46,0-1.92,0-3.84,0-5.76,0-6.22,.03-12.44,.03-18.66,0-.51-.03-1.01-.07-1.52-.03-.28-.22-.45-.48-.48-.2-.03-.4-.03-.6-.01-.99,.07-1.99,.13-2.99,.23-.6,.05-1.19,.16-1.78,.25-.36,.05-.56,.29-.6,.68-.03,.21-.04,.42-.05,.63-.05,1.35-.11,2.7-.15,4.06-.12,4.14-.22,8.29-.35,12.43-.1,2.96-.2,5.93-.3,8.89,.31,.19,.61,.37,.91,.57Z"/><path class="c" d="M498.08,28.28c-.37,.14-.78,.22-1.04,.66,.24,.54,.61,.93,1.21,1.04,.84-.56,1.81-.6,2.75-.65,2.54-.13,5.06,.07,7.56,.52,.42,.08,.83,.27,1.24,.41,.39,.03,.72-.08,.88-.48,.15-.38,.08-.76-.16-1.07-.2-.26-.43-.52-.71-.66-.46-.23-.96-.44-1.46-.51-1.3-.18-2.61-.28-3.93-.19-.87,.06-1.75,.09-2.62,.16-1.27,.1-2.53,.32-3.74,.77Z"/><path class="c" d="M506.69,34.46c.69-1.2,1.5-2.28,2.54-3.18,.12-.11,.23-.24,.3-.38,.05-.1,.02-.24,.02-.36-2.62-.54-5.26-.77-7.92-.73-1.07,.02-2.13,.15-3.16,.48,.13,.21,.24,.44,.4,.61,.62,.68,1.04,1.49,1.41,2.33,.57,1.3,.57,1.3,2.03,1.5-.51,.12-.87,.2-1.27,.3-.15,.99-.12,1.92,.18,2.84,.81,.32,1.66,.1,2.59,.43-.96,.29-1.83-.12-2.62,.34-.2,.76-.34,1.48,.1,2.27,.57,.03,1.16,.06,1.75,.1,.54-.03,1.09-.11,1.72,.33-.68,.24-1.21,.14-1.75,.05-.27-.02-.54-.04-.81-.05-1.19-.05-1.27,.04-1.27,1.39,.62,0,1.25-.05,1.84,.08,.08,.32-.1,.38-.24,.38-.55,.02-1.1,.01-1.65,.02-.06,.34-.12,.69-.18,1.03,.42,.03,.83,.06,1.25,.09,0,.06,0,.11,0,.16-.42,.02-.85,.03-1.27,.05-.1,.6-.19,1.2-.29,1.8,.49,0,.99-.05,1.48,.19-.09,.13-.12,.23-.17,.24-.5,.03-1.01,.04-1.51,.05-.2,.82-.4,1.63-.6,2.44-.04,.19,.03,.25,.2,.2,2.05-.52,4.1-.99,6.23-.61,.21,.04,.45-.08,.71-.14,0-.26,.03-.47,0-.67-.16-.91-.32-1.82-.5-2.72-.04-.2-.16-.38-.24-.56-.16,0-.32,.01-.47-.02-.1-.02-.2-.1-.38-.19,.29-.36,.69-.2,.99-.33-.06-1.51-.13-3.01-.18-4.52-.06-1.73,.13-3.43,.71-5.06q-1.54,.03-2.1-.32c.06-.05,.12-.14,.17-.13,.66,.09,1.31,.18,1.96,.28Z"/><path class="c" d="M442.53,49.6c-.1-.29-.39-.43-.68-.35-.39,.1-.64,.33-.68,.77-.03,.25-.03,.5-.05,.77,.04,.37,.06,.75,.13,1.12,.3,1.61,.61,3.22,.94,4.83,.07,.32,.2,.64,.36,.93,.22,.4,.83,.5,1.41,.28,.31-.12,.39-.4,.26-.98-.04-.17-.09-.32-.13-.48-.6-2.06-1.1-4.14-1.43-6.27-.03-.21-.07-.42-.14-.61Z"/><path class="c" d="M565.27,46.64c.02-.55,0-1.11-.08-1.64-.23-1.42-.48-2.83-.79-4.23-.8-3.59-2.68-6.38-5.69-8.27-.55-.35-1.12-.65-1.69-.96-.32-.17-.64-.34-.96-.51l-.17-.03c.02,.06,.04,.12,.06,.18,.28,.21,.56,.42,.84,.63,.26,.2,.51,.4,.77,.6,1.71,1.37,3.1,3.03,4.23,4.97,1.76,3.04,2.52,9.13,1.49,12.44-.23,.72-.35,1.48-.58,2.2-.28,.88-.57,1.77-.95,2.6-.95,2.06-2.2,3.93-3.5,5.76-.82,1.15-1.8,2.15-2.89,3.02-1,.8-2.1,1.4-3.32,1.7-.74,.18-1.49,.27-2.24,.41-2.84,.55-5.7,.82-8.59,.63-.36-.03-.72-.03-1.07-.02-1.89,.02-3.74-.26-5.59-.61-.67-.13-1.34-.27-2.01-.35-3.07-.38-6.05-1.15-8.91-2.41-1.07-.47-2.1-1.03-3.15-1.54-2.13-1.02-4.06-2.37-5.83-3.97-1.88-1.7-3.44-3.68-4.25-6.2-.53-1.64-.99-3.31-1.34-5-.54-2.66-.58-5.38-.44-8.1,.1-2.01,.84-3.77,2.1-5.28,.31-.38,.62-.77,.93-1.15,.11-.13,.22-.25,.33-.38,.09-.18,0-.2-.14-.15-.15,.1-.29,.19-.45,.29-.6,.49-1.21,.96-1.8,1.47-1.17,.99-1.83,2.33-2.17,3.85-.13,.61-.2,1.25-.23,1.88-.19,4.19,.33,8.27,1.56,12.25,.85,2.72,2.32,4.98,4.3,6.91,2.34,2.3,5.07,3.96,7.89,5.47,2.07,1.11,4.26,1.93,6.52,2.49,1.09,.27,2.2,.44,3.28,.72,2.41,.6,4.83,1.07,7.32,1.22,4.51,.28,9,.33,13.47-.57,2.84-.57,5.42-1.7,7.78-3.44,.79-.58,1.51-1.26,2.08-2.08,.83-1.19,1.58-2.44,2.13-3.82,.25-.62,.47-1.27,.6-1.92,.61-2.98,1.06-5.99,1.16-9.04Z"/><path class="c" d="M455.39,122.13c-.25-.74-.55-1.47-.71-2.23-.53-2.46-.78-4.94-.46-7.46,.05-.42,.05-.86,.02-1.28-.02-.34-.3-.55-.63-.58-.53-.04-.97,.21-1.22,.75-.38,.83-.56,1.71-.46,2.63,.04,.39,.11,.78,.15,1.16,.3,2.64,1.23,5.09,2.46,7.43,.36,.69,.79,1.35,1.55,1.88-.02-.25,0-.4-.04-.53-.21-.59-.45-1.17-.65-1.76Z"/><path class="c" d="M584.47,58.4c-.21-.13-.41-.25-.63-.36-.18-.09-2.73-1.48-3.4-1.8-1.46-.7-2.91-1.37-4.37-2.06-.95-.45-1.89-.9-2.83-1.38-.21-.11-.39-.27-.57-.43-.07,1.19-.18,2.38-.33,3.56-.19,1.47-.43,2.93-.67,4.39-.09,.49-.21,.99-.39,1.46-.08,.2-.18,.38-.29,.55,.5,.17,.99,.35,1.49,.52,.12,.03,.26-.01,.41-.02-.11-.58-.76-.48-.89-1.03,.83,.07,1.54,.36,2.25,.64,3.15,1.25,6.11,2.91,8.98,4.78,.31,.2,.6,.42,.91,.6,.16,.09,2.35,2.07,2.66,2.55l-.08,.08s-.09-.06-.13-.09c-.19-.11-.36-.23-.51-.36-.37-.3-1.71-1.21-1.95-1.39-2.34-1.61-4.81-2.98-7.36-4.18-.07-.03-.14-.09-.21-.09-.1,0-.2,.05-.3,.07,.06,.1,.11,.19,.17,.28,.02,.03,.07,.03,.1,.05,2.6,1.39,5.16,2.84,7.49,4.7,.17,.13,3.23,2.76,3.79,2.93,.14,.04,.43-.08,.5-.21,.15-.28,.26-.63,.27-.95,.03-.76,.01-1.52-.02-2.27-.1-2.11-.48-4.18-.96-6.23-.59-2.51-.95-3.03-3.11-4.33Zm-2.94,.33c.18,.03,2.69,1.33,3.15,1.54,.5,.23,1.91,1.34,1.88,1.38-.03,.04-4.35-2.15-4.87-2.36-.3-.12-1.67-.81-1.63-1,0-.03,1.32,.43,1.47,.45Zm-.93,1.48c.74,.31,1.46,.65,2.19,.97,.08,.01,2.43,1.62,2.83,1.85,.34,.19,1.81,1.48,1.78,1.51-.02,.03-1.06-.66-1.75-.87-.42-.44-7.07-4.16-7.07-4.16,0-.04,1.56,.5,2.03,.71Zm-2.73,.26c1.56,.53,3.03,1.27,4.47,2.09,.3,.17,.62,.33,.93,.49,.12,.1,.24,.2,.37,.3,.42,.31,.87,.55,1.29,.86,.04,.03,.64,.53,.76,.64,.36,.32,1.88,1.62,1.86,1.65-.02,.03-1.32-.63-1.74-.82-.12-.1-.23-.2-.35-.29-.35-.26-1.44-1.01-1.57-1.13-.21-.19-.44-.35-.68-.51-1.79-1.2-3.66-2.21-5.64-2.99-.28-.11-.62-.15-.91-.5,.48-.03,.85,.09,1.21,.22Zm8.73,7.86c-.1-.08-.2-.16-.31-.23-.1-.07-.21-.15-.31-.22-.05-.03-.09-.07-.14-.1l-.03-.02h.01s-.02,0-.01,0l-.05-.04c-.32-.25-1.2-.96-1.33-1.08-.27-.25-.57-.46-.87-.68-2.42-1.74-5-3.17-7.67-4.43-.46-.21-.89-.48-1.34-.74,.48-.06,.91,.14,1.34,.31,1.83,.74,3.59,1.62,5.29,2.64,.79,.48,1.56,1.01,2.35,1.5,.19,.11,2.49,1.92,2.76,2.17,.21,.19,1.3,1.28,1.27,1.31-.02,.02-.56-.23-.95-.39Z"/><path class="c" d="M566.02,110.72c-.03-2.07-.14-4.16-.43-6.21-.28-2-.78-3.97-1.28-5.94-.81-3.11-1.84-6.14-2.98-9.13-3.83-2.94-8.16-4.27-13.1-3.8-4.68,.45-8.76,2.26-12.38,5.16-.95,.76-1.85,1.6-2.76,2.41-1.35,1.21-2.68,2.44-4.02,3.66-1.19,1.09-2.39,2.18-3.58,3.26-.11,.1-.23,.2-.36,.31-.15-.27,.06-.4,.17-.51,.82-.85,1.63-1.71,2.49-2.52,1.93-1.8,3.89-3.57,5.84-5.35,1.81-1.66,3.76-3.12,5.92-4.29,2.6-1.41,5.39-2.22,8.34-2.5,1.58-.15,3.15-.21,4.73,0,1.1,.15,2.18,.39,3.22,.77,1.87,.68,3.64,1.51,5.21,2.68-.07-.19-.14-.37-.21-.56-.9-2.28-2.14-4.35-3.72-6.18-1.62-1.88-3.35-3.63-5.23-5.22-1.04-.88-2.23-1.48-3.45-2.01-.46-.2-1.01-.23-1.52-.25-2.36-.09-4.71,.13-7.06,.32-2.42,.19-4.86,.41-7.28,.66-1.75,.18-3.49,.4-5.23,.64-3.4,.49-6.82,.84-10.26,.89-7.87,.13-15.75,.12-23.61-.03-3.44-.06-6.86-.37-10.27-.89-3.32-.51-6.65-.91-10-1.13-2.31-.16-4.62-.42-6.93-.6-1.11-.08-2.23-.1-3.35-.09-.47,0-.97,.08-1.4,.26-1.23,.52-2.41,1.13-3.46,2.01-1.94,1.64-3.74,3.44-5.39,5.4-1.34,1.59-2.45,3.36-3.25,5.31-.24,.59-.48,1.18-.71,1.77,3.03-2.54,7.72-4.27,11.28-4.24,5.06,.04,9.67,1.38,13.74,4.36,1.3,.95,2.52,2.02,3.73,3.08,1.59,1.41,3.15,2.86,4.71,4.3,.78,.72,1.56,1.45,2.31,2.19,.36,.36,.67,.76,1.01,1.14l-.11,.13c-.06-.03-.14-.05-.19-.1-2.85-2.6-5.7-5.2-8.54-7.8-2.37-2.17-4.96-4-7.95-5.24-3.43-1.42-7-1.86-10.68-1.51-.97,.09-1.94,.35-2.88,.66-2.48,.8-4.76,1.96-6.7,3.72-1.68,4.39-3.06,8.89-3.96,13.56-.17,.87-.24,1.76-.31,2.64-.24,2.87-.32,5.74-.28,8.62,.02,1.36-.02,2.71,0,4.07,.03,4.78,.03,9.57,.13,14.35,.06,3.01,.16,6.02,.26,9.04,.55,1.39,1.2,2.76,1.96,4.07,.31,.53,.65,1.05,1.06,1.5,1.46,1.6,2.95,3.17,4.8,4.34,1.11,.71,2.05,1.62,2.85,2.66,2.08,2.68,4.11,5.38,5.71,8.39,2.22,4.17,4.46,8.34,6.45,12.63,1.07,2.29,1.99,4.64,2.67,7.08,.31,1.1,.63,2.19,.99,3.28,.41,1.24,.71,2.51,1.33,3.67,1.98,3.73,4.52,6.98,7.97,9.47,.46,.33,.91,.7,1.36,1.05,2,1.55,3.97,3.14,6,4.65,2.17,1.6,4.27,3.28,6.2,5.18,1.75,1.72,3.68,3.24,5.59,4.77,1.16,.92,2.45,1.57,3.95,1.83,1.17,.2,2.35,.23,3.53,.26,2.14,.06,4-.65,5.66-1.94,1.61-1.25,3.19-2.55,4.75-3.86,1.62-1.37,3.17-2.83,4.82-4.16,2.76-2.23,5.56-4.42,8.37-6.58,2.54-1.95,4.85-4.12,6.85-6.62,1.54-1.93,2.77-4.02,3.46-6.42,.37-1.29,.78-2.58,1.19-3.86,1.39-4.27,2.96-8.46,5.14-12.4,.83-1.5,1.61-3.02,2.37-4.56,.78-1.57,1.59-3.12,2.5-4.62,.87-1.43,1.79-2.82,2.7-4.23,.76-1.18,1.62-2.25,2.67-3.17,.74-.64,1.49-1.27,2.26-1.88,1.22-.96,2.37-2,3.37-3.19,.84-1,1.66-2.02,2.51-3.01,.03-.03,.05-.06,.07-.09,.05-1.82,.15-3.63,.21-5.45,.07-1.69,.16-3.39,.22-5.07,.07-1.95,.12-3.9,.16-5.84,.04-2.41,.08-4.82,.09-7.23,.01-3.98,.04-7.96-.03-11.94Zm-19.74-23.23c.89-.17,1.78-.39,2.68-.47,1.62-.14,3.24-.14,4.84,.19,1.56,.32,4.39,1.7,4.39,1.7l.33,.53s-3.52-1.71-5.49-2c-1.97-.3-3.93-.16-5.88,.17-.35,.06-1.06,.1-1.06,.1,0,0,.12-.21,.19-.22Zm-1.38,9.63c.42-.36,.81-.77,1.29-1.03,1.21-.66,2.44-1.29,3.69-1.85,.64-.28,1.35-.43,2.05-.55,2.07-.36,4.16-.49,6.24-.08,.14,.03,.41,.22,.41,.22-1.57-.1-3.14-.2-4.73-.08-3.11,.23-5.79,1.42-8.26,3.21-.22,.16-.44,.33-.66,.5-.03,.02-.07,.02-.11,.03-.19-.17,0-.29,.08-.36Zm-18.4-.84c.95-.9,1.91-1.8,2.88-2.69,.22-.2,.49-.35,.74-.53l.03,.03-.03-.03c.08-.13,.15-.28,.26-.38,1.18-1.1,2.35-2.2,3.55-3.27,1.67-1.49,3.5-2.78,5.49-3.83,.2-.11,.57-.11,.51-.05-.21,.18-.44,.33-.68,.47-2.55,1.52-4.88,3.33-7.02,5.38-.54,.52-1.09,1.02-1.65,1.52-.11,.1-.27,.15-.4,.22-.03,.07-.04,.16-.09,.21-1.24,1.17-2.47,2.33-3.72,3.49-.05,.05-.14,.07-.21,.1-.17,.21-.33,.43-.51,.63-1.66,1.77-3.33,3.53-5,5.3-.1,.11-.21,.2-.33,.31-.19-.32,.07-.47,.21-.62,1.37-1.51,2.75-3.01,4.14-4.49,.43-.45,.93-.83,1.39-1.24,.14-.18,.27-.37,.44-.53Zm-1.03-.47c-2.06,1.99-4.16,3.95-6.09,6.09,.59-1.36,3.92-4.73,6.09-6.09Zm-17.2,33c.74,.18,3.38,.38,4.13,.3-.72,.47-1.07,.54-2.1,.47-.74-.05-1.42-.25-2.03-.77Zm1.87,1.27c-.61,.3-.97,.16-1.33,.04-.59-.21-1.14-.49-1.46-1.11,.72,.65,1.69,.78,2.79,1.07Zm-.07-1.43c-.85-.11-1.57-.49-2.08-1.21-.06-.08-.07-.2-.15-.46,.2,.11,.24,.12,.26,.15,1.45,1.32,3.05,1.54,4.76,.57,1.3-.74,2.54-1.58,3.63-2.63,.21-.21,.45-.38,.8-.49-.06,.12-.09,.27-.18,.37-.31,.35-.61,.73-.98,1.02-.9,.69-1.83,1.36-2.78,2-.99,.67-2.12,.83-3.29,.69Zm-.17-20.01c.79-.03,1.58-.11,2.36-.17,.39-.03,.77-.04,1.18,.08-.42,.09-.83,.2-1.25,.26-2.95,.39-5.91,.4-8.87,.02-.39-.05-.78-.15-1.15-.26-.08-.02-.12-.17-.18-.26,0,0,5.26,.41,7.91,.32Zm-12.16-.76c3.17,1.7,6.56,2.69,10.14,3.02,1.87,.17,3.71-.07,5.48-.71,1-.36,1.97-.81,2.95-1.21,.28-.12,.57-.23,.85-.34,.16,.26-.02,.34-.12,.4-3.29,1.95-6.79,2.9-10.65,2.26-2.35-.39-4.63-.97-6.79-1.99-1-.47-1.97-.98-2.67-1.85,.27,.14,.55,.27,.82,.41Zm-4.35,16.27c.17,.14,.35,.26,.51,.42,1.06,1.06,2.31,1.88,3.58,2.67,.68,.42,1.41,.67,2.22,.71,1,.05,1.86-.23,2.56-.96,.13-.13,.27-.25,.55-.51-.13,.63-.41,.93-.74,1.19-.58,.44-1.24,.68-1.96,.72-.84,.05-1.67-.08-2.4-.48-1.42-.78-2.74-1.7-3.88-2.86-.22-.22-.39-.48-.58-.73l.15-.17Zm7.38,5.5c.53-.12,1.06-.22,1.59-.32l.05,.06c-.49,.51-1.08,.6-1.78,.5,.07-.13,.1-.23,.14-.24Zm-2.49-.63c-.1-.03-.18-.12-.24-.25,1.13,.24,2.24,.21,3.36,.13,0-.01,.01-.02,.02-.03l.02,.03h-.04c-.11,.25-.36,.21-.57,.27-.87,.26-1.71,.09-2.55-.14Zm-7.16-27.6c-1.98-1.94-3.95-3.88-6.13-6.02,1.91,1.1,5.6,4.79,6.13,6.02Zm-9.59-7.44c-.28-.26-.52-.57-.77-.86-.07-.02-.17-.03-.22-.08-1.04-.99-2.08-1.99-3.11-2.98-.1-.05-.23-.08-.31-.15-1.88-1.69-3.94-3.15-6.11-4.44-.21-.13-.39-.27-.26-.56,0,0,.55,.41,.85,.58,2.06,1.13,3.92,2.54,5.65,4.12,.11,.1,.18,.24,.27,.37,.19,.13,.4,.24,.57,.4,.81,.74,1.6,1.48,2.39,2.24,.14,.13,.23,.3,.34,.45,.16,.1,.35,.17,.49,.3,2.42,2.24,4.85,4.48,7.08,6.9,.56,.61,1.09,1.24,1.61,1.87,.13,.15,.18,.37,.26,.56,.01,0,.03,.02,.04,.03l-.02,.02s-.01-.03-.02-.05c-.14-.09-.3-.17-.41-.3-2.6-2.98-5.42-5.73-8.31-8.43Zm-28.19-5.88c2.27-1.15,4.68-1.6,7.21-1.47,1.34,.07,2.68,.19,3.97,.58,.16,.05,.29,.11,.29,.3,0,0-1.53-.25-2.31-.36-1.81-.27-3.61-.25-5.41,.03-.98,.15-1.9,.49-2.82,.83-.4,.15-.82,.26-1.23,.38,0,0,.18-.23,.3-.29Zm.61,5c1.86-.11,3.71-.02,5.53,.43,.53,.13,1.08,.28,1.57,.51,1.04,.48,2.06,1,3.06,1.54,.69,.37,1.31,.85,1.8,1.47-.21,.24-.33,.05-.43-.03-1.29-1.13-2.8-1.9-4.36-2.58-.68-.29-1.41-.51-2.14-.66-1.55-.34-3.12-.52-4.7-.44-.86,.04-2.55,.3-2.55,.3,.08-.08,1.56-.5,2.22-.54Zm-6.96,19.82c-.26-1.18-.5-2.38-.33-3.58,.55-.65,1.25-1.03,1.97-1.33,2.92-1.23,5.91-2.23,9.03-2.82,2.11-.4,4.25-.4,6.38-.23,3.3,.26,6.47,1.05,9.5,2.38,.43,.19,.88,.36,1.32,.52,.14,.05,.29,.04,.55,.06-.14-.22-.21-.36-.31-.47-2.31-2.49-4.82-4.76-7.7-6.6-2.16-1.38-4.32-2.77-6.63-3.89-1.6-.78-3.24-1.44-5-1.82-1.37-.3-2.77-.41-4.12-.12-1.6,.34-3.07,1.04-3.94,2.57-.25,.44-.5,.89-.77,1.32-.07,.12-.22,.19-.33,.29,0,0,1.24-2.88,2.48-3.67,1.61-1.03,3.35-1.3,5.22-1.14,1.39,.12,2.72,.47,4.02,.95,1.49,.54,2.91,1.21,4.3,1.98,2.21,1.23,4.36,2.55,6.43,4,1.85,1.29,3.52,2.78,5.12,4.37,3.81,3.78,7.37,7.78,10.91,11.8,1.17,1.33,2.21,2.77,3.37,4.11,1.4,1.6,2.87,3.14,4.3,4.71,.51,.55,1.02,1.09,1.52,1.65,.84,.96,1.84,1.72,2.99,2.28,1.66,.81,3.34,.9,5.02,.07,1.03-.5,1.99-1.1,2.66-2.19-.08,.84-.32,1.14-1.42,1.95-.68,.5-1.41,.9-2.23,1.06-.8,.15-1.64,.16-2.64,.25-.11,.12-.34,.39-.59,.63-1.68,1.61-3.64,2.74-5.85,3.47-1.8,.6-3.58,1.25-5.37,1.85-2.39,.79-4.85,1.16-7.36,.93-3.23-.3-6.44-.73-9.57-1.6-1.48-.41-2.95-.88-4.41-1.38-1.62-.55-3.11-1.35-4.51-2.33-1.13-.8-2.25-1.6-3.37-2.41-2.53-1.83-4.57-4.1-6.18-6.75-2.06-3.38-3.59-6.98-4.44-10.85Zm7.9-15.29c-.07,.13-.1,.23-.17,.29-1.78,1.49-3.37,3.15-4.72,5.04-.09,.13-.21,.23-.32,.34-.02,.02-.07,.03-.08,.01-.03-.02-.04-.06-.06-.1,1.23-2.38,3.68-4.96,5.35-5.58Zm-4.22,2.29c-.02-.43,.29-.65,.58-.91-.07,.47-.58,.91-.58,.91Zm5,3.77c1.36-.43,2.78-.55,4.19-.65,1.62-.11,3.23-.05,4.84,.19,.69,.1,1.4,.2,1.95,.74-4.32-.88-8.58-.81-12.81,.54,.54-.44,1.19-.62,1.83-.82Zm42.03,30.09c-.02-.22,.03-.45,.04-.67l.26-.05c.61,.75,.45,1.65,.37,2.51-.09,1-.83,1.52-1.72,2.26,.07-.39,.04-.57,.12-.65,.93-.97,1.06-2.14,.93-3.39Zm1,2.11c.09-.32,.23-.63,.35-.94,.36,.82-.09,1.35-.56,1.93-.25-.44,.12-.68,.21-.99Zm-14.52,3.78c-1.15,.41-2.3,.85-3.47,1.18-2.68,.77-5.43,1.09-8.21,.74-3.65-.46-7.1-1.54-10.12-3.69-3.2-2.28-6.06-4.91-8.3-8.15-.13-.19-.25-.39-.38-.58l.17-.19c.38,.44,.76,.88,1.13,1.32,1.82,2.18,3.9,4.1,6.07,5.93,2.75,2.31,5.93,3.67,9.43,4.43,3.66,.8,7.22,.45,10.75-.66,1.88-.59,3.74-1.26,5.62-1.84,1.74-.54,3.52-.9,5.35-.91,.75,0,1.5,.07,2.25,.12,.15,.01,.32,.06,.31,.34-.17,.02-.35,.07-.53,.06-3.5-.15-6.81,.72-10.06,1.88Zm5.01-.7c-.13,.07-.26,.16-.4,.21-1.11,.39-2.24,.75-3.34,1.17-2.54,.97-5.08,1.91-7.74,2.53-1.59,.37-3.19,.51-4.8,.11-.19-.05-.38-.09-.57-.15-.11-.03-.21-.09-.44-.19,.39-.15,.68-.1,.95-.05,1.91,.38,3.77,.09,5.61-.41,2.39-.65,4.73-1.48,7.04-2.38,.88-.34,1.79-.61,2.69-.88,.29-.09,.61-.09,.92-.13l.08,.17Zm-36.37-6.36c-1.09-1.94-2.12-3.92-3.17-5.89-.1-.19-.12-.42-.18-.62,.33-.15,.41,.05,.5,.21,.73,1.34,1.49,2.67,2.18,4.03,1.01,1.98,2.27,3.75,3.95,5.22,.09,.08,.17,.16,.24,.25,.05,.06,.08,.13,.12,.2-.63-.15-1.07-.53-1.51-.91-.84-.72-1.6-1.53-2.14-2.49Zm13.67,14.31c-1.66-.73-3.29-1.54-4.7-2.69-1.68-1.36-3.35-2.74-5.01-4.13-.51-.43-.99-.89-1.34-1.45,.16-.25,.28-.08,.38,0,1.84,1.54,3.67,3.09,5.52,4.62,1.4,1.16,2.9,2.16,4.51,3.01,.34,.18,.66,.39,1.16,.68-.31-.02-.43,0-.52-.03Zm4.53,.55c-1.64-.58-3.22-1.31-4.72-2.19-1.84-1.08-3.66-2.18-5.45-3.34-.82-.53-1.54-1.22-2.3-1.85-.13-.11-.2-.29-.3-.44l.18-.13c.16,.11,.32,.22,.47,.34,3.16,2.51,6.66,4.49,10.28,6.26,.07,.03,.14,.07,.21,.1,3.07,1.44,6.23,1.56,9.48,.67,1.91-.53,3.76-1.18,5.49-2.16,.58-.33,1.22-.55,1.85-.78,1.19-.43,2.38-.84,3.58-1.25,1.02-.35,1.95-.86,2.78-1.53,.49-.4,.99-.78,1.49-1.16,.18-.13,.39-.23,.56-.33,.23,.19,.12,.34,.02,.44-1.35,1.45-2.8,2.76-4.77,3.37-1.13,.35-2.24,.76-3.35,1.17-.7,.26-1.42,.52-2.07,.88-2.1,1.17-4.36,1.85-6.69,2.32-2.28,.46-4.56,.38-6.78-.4Zm13.65-.28c-2.76,1.39-5.67,2.35-8.63,3.18-.41,.11-.83,.18-1.24,.26l-.02-.21c1.55-.56,3.09-1.15,4.65-1.69,1.72-.59,3.38-1.29,5-2.12,1.52-.78,3.17-1.19,4.79-1.66,1.15-.33,2.35-.22,3.52,.02,.05,.01,.08,.12,.13,.19-.09,.24-.32,.18-.48,.16-1.85-.14-3.61,.2-5.32,.88-.8,.32-1.63,.58-2.4,.97Zm4.62,51.31l-.98,2.75,.12-2.64c.04-.77,.17-1.31,.37-1.76l-.93-2.45c-.04-.12-1.12-2.98-.57-4.94,.11-.67,1.29-2.62,2.68-4.89,.25-.4,.47-.76,.63-1.04,.54-.83,3.05-5.39,3.08-5.43l.71,.32c-.06,.16-1.43,3.72-2.81,5.83-.24,.42-.58,.99-.94,1.6-.86,1.44-2.06,3.43-2.16,3.99l-.04,.12c-.25,.42-.1,2.52,.18,4.24l.37,2.28c.17-.3,.36-.58,.59-.89l.07-.11c.07-1.87,1.06-6.31,3.68-8.23,4.81-2.67,14.12-.71,15.66-.13,.77-.04,1.37-.06,1.91-.09,.4-.02,.78-.03,1.16-.05,.6-.03,1.24-.05,1.85-.06h.08l.07,.02c2.33,.87,5.39,4.8,5.67,5.45l-.69,.37c-.93-1.37-3.22-4.16-5.2-5.07-.66,.02-1.23,.04-1.75,.06-.4,.02-.8,.04-1.16,.06-.84,.04-1.56,.07-2,.08-7.74,1.34-15.27,5.67-18.18,8.08-.77,.52-1.18,1.73-1.46,2.53Zm24.15-61.51c.21,.26,.38,.56,.56,.85l-.19,.16c-1.02-.62-1.69-1.45-1.7-2.72,0-1.13,.11-1.52,.66-1.88,.03,.21,.07,.39,.08,.56,0,.39-.01,.78-.02,1.17-.02,.69,.17,1.31,.61,1.86Zm-1.3,.17c-.82-.85-.89-1.04-.67-2.12,.19,.53,.29,.85,.41,1.17,.11,.3,.39,.56,.27,.96Zm17.1,3.81c-1.85-.57-3.66-1.24-5.5-1.83-2.27-.73-4.61-1.06-7-1.06-.34,0-.67-.03-1.2-.06,.57-.4,1.04-.4,1.5-.43,1.87-.1,3.71,.11,5.52,.58,2.07,.53,4.08,1.22,6.09,1.94,2.51,.9,5.11,1.39,7.79,1.29,4.28-.17,8.26-1.32,11.75-3.85,2.7-1.95,5.09-4.23,7.25-6.75,.41-.48,.83-.95,1.24-1.42,.02-.03,.07-.03,.11-.05,.2,.16,.02,.29-.06,.39-.81,1.06-1.59,2.16-2.47,3.16-1.41,1.6-3.02,2.99-4.68,4.33-2.82,2.29-6.06,3.63-9.59,4.4-3.66,.79-7.23,.46-10.76-.64Zm9.68,1.89c-.43,.18-.64,.3-.85,.36-1.88,.49-3.75,.37-5.61-.11-2.33-.6-4.59-1.4-6.84-2.25-1.36-.51-2.72-1.01-4.3-1.61,.69-.12,1.18-.03,1.67,.14,.82,.29,1.64,.56,2.45,.87,2.05,.8,4.14,1.5,6.26,2.13,2.15,.64,4.32,.87,6.54,.46,.14-.03,.3,0,.7,0Zm-29.65,68.31c-.14,.16-.39,.17-.55,.02-1-.92-2.5-1.4-4.1-1.33-1.43,.06-2.74,.57-3.42,1.31-.08,.08-.18,.13-.29,.13-.09,0-.19-.03-.26-.1-.16-.14-.17-.39-.02-.55,.82-.9,2.3-1.49,3.96-1.56,1.81-.07,3.5,.48,4.66,1.54,.16,.14,.17,.39,.02,.55Zm-.02-14.19c-.16,.15-.4,.14-.55,0-.26-.15-2-.06-3.83,.41-1.3,.33-1.72,.64-1.78,.73-.06,.14-.21,.23-.35,.23-.05,0-.11-.01-.16-.03-.2-.09-.28-.32-.2-.52,.35-.79,2.6-1.26,3.55-1.43,1.26-.22,2.86-.39,3.32,.08,.15,.15,.15,.4,0,.55Zm1.34-2.88c-2.02-.08-7.09,.1-10.76,3.49-.07,.07-.17,.1-.26,.1-.1,0-.21-.04-.29-.12-.15-.16-.14-.4,.02-.55,3.88-3.59,9.21-3.78,11.32-3.7,.21,0,.38,.19,.37,.4s-.2,.37-.4,.37Zm10.83,1.07c-.23,.32-.51,.58-.84,.77-.73,.41-1.59,.35-2.56-.18l-.09-.06-2.4-2.09c-.69-.52-2.7-1.92-3.63-2.09-.01,0-.03,0-.04,0-1.18-.18-1.83-.28-4.35,0-.98,.15-1.86,.33-2.65,.54-2.53,.72-4.7,1.88-5.78,2.46-.21,.11-.38,.2-.5,.26-.03,.02-.06,.03-.1,.05-.86,.49-3.45,2.65-4.48,3.52v.03l-2.83,1.36,2.27-1.94s.05-.05,.12-.1c.64-.76,2.26-1.96,3.41-2.77,.53-.4,.98-.72,1.25-.85,.21-.11,.45-.24,.71-.39,1.17-.66,2.94-1.66,5.76-2.39,.87-.25,1.79-.44,2.72-.55,2.41-.36,2.99-.27,4.05-.08l.52,.09h.05c1.44,.26,3.43,1.77,4.02,2.28l2.35,2.05c.82,.33,1.47,.32,2-.02,.15-.1,.29-.23,.42-.38,.72-1.01,.99-2.77,1.04-3.55-.65-2.66-.58-2.68-.19-2.79,.43-.12,.52,.16,1.03,1.73l.02,.06v.07c-.04,1.68-.32,3.79-1.3,4.98Zm2.39-.78l-1.36,3.56,.61-3.76c.28-1.71,.43-3.81,.18-4.23l-.05-.12c-.11-.57-1.3-2.55-2.17-4-.36-.61-.7-1.17-.95-1.61-1.37-2.1-2.74-5.66-2.79-5.81l.7-.33s2.55,4.6,3.08,5.43c.17,.29,.39,.64,.63,1.03,1.4,2.28,2.57,4.23,2.69,4.94,.54,1.92-.53,4.78-.58,4.9Zm10.55-43.73c-2.95-.88-5.88-1.8-8.61-3.24-1.4-.74-2.94-1.12-4.45-1.56-.63-.19-1.32-.18-1.99-.22-.55-.03-1.09-.01-1.64-.01v-.25c.16-.06,.34-.14,.52-.17,1.3-.17,2.59-.16,3.86,.24,1.84,.59,3.65,1.23,5.39,2.1,2.29,1.15,4.77,1.86,7.17,2.76,.43,.16,.86,.34,1.26,.57-.53,.08-1.02-.08-1.5-.22Zm3.77-2.48c-1.96,.44-3.93,.36-5.88-.09-2.2-.51-4.34-1.17-6.32-2.29-.58-.33-1.22-.55-1.85-.78-1.18-.44-2.37-.87-3.57-1.26-1.27-.41-2.35-1.1-3.31-2-.54-.51-1.12-.98-1.61-1.71,.25-.03,.34-.07,.39-.04,.17,.1,.33,.21,.49,.33,3.16,2.38,3.15,2.41,6.72,3.57,1.43,.46,2.79,1.06,4.14,1.73,2.5,1.24,5.13,1.99,7.94,2.12,1.73,.08,3.38-.22,4.98-.85,1.55-.61,3.02-1.36,4.45-2.2,1.46-.86,2.92-1.73,4.35-2.64,.8-.51,1.53-1.1,2.3-1.66,.24-.17,.49-.34,.72-.51,.21,.23,.05,.36-.04,.45-.65,.57-1.27,1.19-1.99,1.66-2.33,1.54-4.7,3.03-7.19,4.32-1.51,.78-3.07,1.45-4.73,1.83Zm15.79-7.88c-1.81,1.51-3.62,3.03-5.47,4.49-1.36,1.08-2.93,1.84-4.53,2.5-.06,.02-.13,0-.34,0,.24-.16,.38-.28,.53-.36,2.69-1.36,5.03-3.22,7.32-5.14,1.14-.96,2.27-1.95,3.4-2.91,.06-.05,.18-.04,.35-.07-.35,.65-.8,1.09-1.28,1.49Zm7.09-13.5c-.13,.33-.26,.65-.43,.97-.83,1.56-1.63,3.13-2.51,4.66-.92,1.62-2.19,2.95-3.93,3.83,.2-.22,.4-.45,.61-.65,1.4-1.29,2.52-2.8,3.4-4.48,.78-1.49,1.6-2.97,2.4-4.45,.09-.17,.17-.36,.49-.3-.01,.14,0,.29-.04,.42Zm-5.45-28.88c.45-.03,.68,.21,.92,.38,1.12,.81,2.11,1.77,2.98,2.83,.64,.78,1.21,1.6,1.6,2.55-.98-.88-1.63-2.04-2.57-2.96-.94-.92-1.9-1.83-2.93-2.81Zm.67,6.71c-.19-.02-.4,0-.58-.06-3.15-.95-6.36-.98-9.59-.61-.69,.08-1.37,.27-2.08,.42-.07-.29,.17-.36,.3-.4,.72-.19,1.44-.43,2.18-.5,2.36-.21,4.72-.24,7.06,.22,.81,.16,1.59,.43,2.37,.68,.12,.04,.35,.25,.35,.25Zm2.87-5.43s.75,.69,.95,1.17c0,0-.67-.48-.95-1.17Zm-1.4-3.99c-1.73-.08-3.37,.28-4.99,.85-1.53,.54-3,1.21-4.41,2-2.35,1.3-4.62,2.72-6.81,4.28-2.33,1.65-4.34,3.65-6.28,5.72-.05,.05-.05,.14-.07,.21,.16,.15,.3,.02,.43-.04,.92-.36,1.84-.72,2.76-1.08,4.39-1.72,8.94-2.28,13.61-1.77,1.33,.14,2.63,.52,3.93,.85,1.96,.49,3.85,1.18,5.7,1.96,.61,.26,1.18,.62,1.77,.94,.52,.28,.71,.74,.64,1.29-.13,1.05-.21,2.11-.46,3.14-1.08,4.51-2.95,8.68-5.67,12.46-1.18,1.64-2.58,3.08-4.19,4.3-1.45,1.09-2.92,2.15-4.41,3.19-1.56,1.09-3.3,1.85-5.1,2.45-3,1-6.06,1.77-9.21,2.15-1.33,.16-2.66,.37-4,.46-2.8,.19-5.51-.22-8.13-1.26-1.32-.52-2.67-.96-4.03-1.38-2.7-.84-5.04-2.22-6.99-4.36-1.65,.32-3.17-.12-4.55-1.07-.74-.51-1.5-1.02-1.77-2,.11,0,.2-.01,.22,.01,1.04,1.53,2.57,2.29,4.32,2.65,1.04,.22,2.05-.06,3-.48,1.02-.44,1.97-1.02,2.73-1.84,2.27-2.45,4.64-4.83,6.75-7.42,2.67-3.26,5.44-6.43,8.29-9.53,2.1-2.29,4.27-4.52,6.48-6.71,1.09-1.08,2.28-2.07,3.5-2.99,2.66-1.98,5.48-3.71,8.44-5.22,1.83-.93,3.73-1.7,5.76-2.1,1.29-.25,2.63-.35,3.89-.08,1.97,.42,3.75,1.27,4.59,3.31,.25,.6,.62,1.15,.61,1.86-.29-.5-.6-.99-.87-1.5-1.15-2.22-3.07-3.16-5.49-3.26Z"/><path class="b" d="M510.94,187.82c.36-.02,.76-.04,1.16-.06,.53-.02,1.09-.04,1.75-.06,1.98,.9,4.27,3.7,5.2,5.07l.69-.37c-.28-.65-3.34-4.58-5.67-5.45l-.07-.03h-.08c-.61,.02-1.25,.04-1.85,.07-.38,.02-.76,.03-1.16,.05-.54,.03-1.14,.05-1.91,.09-1.54-.57-10.85-2.53-15.66,.13-2.62,1.92-3.6,6.36-3.68,8.23l-.07,.11c-.23,.31-.43,.59-.59,.89l-.37-2.28c-.28-1.71-.43-3.82-.18-4.24l.04-.12c.1-.56,1.3-2.54,2.16-3.99,.36-.61,.71-1.18,.94-1.6,1.38-2.12,2.75-5.68,2.81-5.83l-.71-.32s-2.54,4.6-3.08,5.43c-.17,.28-.38,.63-.63,1.04-1.39,2.27-2.56,4.21-2.68,4.89-.55,1.96,.53,4.82,.57,4.94l.93,2.45c-.21,.46-.33,1-.37,1.76l-.12,2.64,.98-2.75c.28-.8,.7-2.01,1.46-2.53,2.91-2.41,10.43-6.74,18.18-8.08,.45-.01,1.16-.04,2-.08Zm-20.47,7.39c.03-.34,.08-.74,.16-1.18,.12,.31,.29,.53,.5,.69-.24,.17-.46,.33-.65,.5Zm1.34-1c-.35-.13-.67-.47-.67-2.16,.4-1.23,1.01-2.48,1.84-3.42,.11,1.89,.59,3.29,1.35,3.99-.94,.55-1.8,1.09-2.51,1.59Zm3.23-2c-.79-.5-1.28-2.1-1.31-4.27,.01-.01,.03-.02,.04-.03,1.05-.58,2.36-.92,3.76-1.1-.04,2.2,.42,3.06,.82,3.72-1.18,.55-2.29,1.12-3.31,1.68Zm7.74-3.49c-1.29,.45-2.53,.96-3.72,1.47-.38-.61-.82-1.32-.76-3.46,.6-.05,1.21-.07,1.83-.07,.89,0,1.79,.04,2.65,.12v1.93Zm.78-.27v-1.59c1.43,.16,2.72,.37,3.66,.58-1.25,.28-2.47,.62-3.66,1.01Z"/><g><path class="c" d="M498.31,186.74c-.06,2.14,.37,2.84,.76,3.46,1.18-.52,2.43-1.03,3.72-1.47v-1.93c-.86-.08-1.75-.12-2.65-.12-.61,0-1.23,.02-1.83,.07Z"/><path class="c" d="M503.56,188.45c1.19-.38,2.42-.73,3.66-1.01-.94-.21-2.23-.43-3.66-.58v1.59Z"/><path class="c" d="M490.47,195.21c.2-.17,.42-.33,.65-.5-.21-.16-.37-.37-.5-.69-.07,.45-.12,.84-.16,1.18Z"/><path class="c" d="M491.14,192.05c0,1.69,.32,2.02,.67,2.16,.72-.5,1.57-1.04,2.51-1.59-.76-.7-1.24-2.1-1.35-3.99-.83,.93-1.43,2.19-1.84,3.42Z"/><path class="c" d="M493.77,187.91s-.03,.02-.04,.03c.03,2.17,.52,3.77,1.31,4.27,1.02-.56,2.13-1.13,3.31-1.68-.4-.65-.86-1.52-.82-3.72-1.4,.18-2.71,.52-3.76,1.1Z"/></g><path class="c" d="M585.57,72.52c-.09-.62-.4-.98-.83-1.32-2.68-2.17-5.54-4.01-8.6-5.5-1.9-.92-3.79-1.89-5.76-2.67-.33,.24-.72,.4-1.18,.43-.55,.04-1.11-.04-1.66-.06-.07-.04-.15-.06-.23-.06-.87-.11-1.51-.73-2.27-1.19-.13,.12-.29,.19-.36,.32-.86,1.49-2.11,2.56-3.47,3.44-1.84,1.19-3.75,2.21-5.74,3.02,2.01,.36,3.92,1.03,5.7,2.23,1.65,1.13,3.27,2.27,4.8,3.57,1.31,1.12,2.49,2.38,3.52,3.8,2.48,3.45,4.59,7.13,6.05,11.21,.44,1.23,.89,2.44,1.34,3.67,1.32,3.66,2.17,7.44,2.67,11.31,.34,2.73,.58,5.47,.89,8.2,.48,4.21,.66,8.44,.61,12.68-.04,3-.07,6.01-.11,9.02,0,.38-.02,.76,.01,1.14,0,.14,.12,.26,.22,.46,.47-.45,.66-.97,.88-1.46,.98-2.14,1.67-4.4,2.22-6.7,.91-3.86,1.77-7.74,2.62-11.61,.45-2.06,.73-4.16,.83-6.28,.29-5.62,.44-11.25,.34-16.89-.05-2.79-.13-5.59-.56-8.35-.64-4.14-1.31-8.27-1.94-12.4Z"/><path class="c" d="M573.96,63.37q.42,.46,1.19,.51-.68-.68-1.19-.51Z"/><path class="c" d="M536.99,112.05s-.08-.03-.08-.03c-.03,.03-.05,.06-.07,.09l.15-.07Z"/><path class="c" d="M526.61,119.6c-1.36,1.34-2.4,2.9-3.29,4.56-.06,.12-.27,.29-.01,.47,.71-.85,1.41-1.7,2.12-2.53,2.94-3.46,6.26-6.51,10.07-9,.23-.15,.47-.3,.68-.47,.06-.05,.05-.17,.06-.27-1.71,.81-3.31,1.78-4.83,2.89-1.75,1.29-3.25,2.84-4.8,4.36Z"/><path class="c" d="M578.81,107.9c-.28-2.82-.7-5.62-1.31-8.39-.74-3.35-1.95-6.53-3.13-9.72-1.41-3.82-3.39-7.29-5.73-10.53-.53-.74-1.12-1.44-1.74-2.09-2.38-2.49-5.13-4.44-8.08-6.07-.79-.44-1.63-.7-2.5-.87-1.07-.21-2.15-.37-3.23-.46-1.09,.33-2.21,.6-3.36,.78-1.42,.23-2.86,.32-4.3,.35-2.11,.04-4.21-.05-6.3-.24-.55,.07-1.1,.15-1.65,.23-3.43,.53-6.86,1.17-10.29,1.74-2.21,.36-4.42,.7-6.67,.72-5.51,.07-11.02,.18-16.53,.18-4.44,0-8.87-.19-13.3-.21-2.53-.02-5.02-.28-7.51-.71-3.03-.52-6.05-1.14-9.1-1.6-1.78-.27-3.56-.5-5.34-.73-2.44,.21-4.87,.32-7.31,.19-1.88-.1-3.73-.35-5.56-.8-.25,.03-.5,.05-.75,.08-1.84,.24-3.58,.81-5.19,1.83-1.79,1.13-3.51,2.36-5.13,3.74-1.4,1.2-2.63,2.58-3.72,4.12-2.4,3.41-4.3,7.11-5.8,11.06-1.84,4.82-3.22,9.74-3.82,14.9-.26,2.23-.48,4.46-.73,6.69-.47,4.17-.77,8.34-.73,12.54,.05,5.72,.13,11.43,.23,17.14,.03,2.12,.34,4.22,.7,6.3,.24,1.41,.86,2.64,1.86,3.62,.97,.93,2.11,1.23,3.55,.98-.26-.28-.41-.48-.59-.62-.74-.6-1.15-1.41-1.34-2.34-.16-.74-.28-1.5-.33-2.26-.13-1.94-.23-3.88-.3-5.83-.34-8.33-.38-16.67-.03-25.01,.18-4.37,.62-8.69,1.35-12.99,.75-4.39,2.09-8.6,3.64-12.74,.38-1.02,.83-2.02,1.33-2.99,.9-1.74,1.86-3.45,2.82-5.17,.78-1.39,1.76-2.62,2.93-3.67,3.07-2.8,6.65-4.5,10.61-5.29,3.72-.74,7.48-.64,11.23-.4,2.67,.17,5.33,.46,8,.7,1.15,.11,2.31,.23,3.45,.38,1.9,.26,3.8,.56,5.7,.81,3.57,.48,7.16,.7,10.76,.72,8.03,.04,16.06,.3,24.08-.17,2.27-.13,4.54-.4,6.8-.66,2.62-.3,5.22-.78,7.86-.91,1.16-.06,2.31-.16,3.46-.28,4.06-.44,8.12-.68,12.2-.42,3.86,.25,7.49,1.29,10.85,3.29,2.87,1.72,5.25,3.99,6.82,7.11,.44,.86,.95,1.68,1.38,2.53,.71,1.42,1.47,2.82,2.07,4.3,2.69,6.72,4.23,13.75,4.8,21.02,.34,4.43,.5,8.88,.49,13.32,0,4.36,0,8.72-.16,13.08-.13,3.55-.38,7.09-.72,10.63-.15,1.58-.46,3.09-1.3,4.44,.05,.05,.09,.09,.13,.13,1.51,.09,2.59-.68,3.45-1.91,.66-.94,1.03-2.01,1.21-3.15,.44-2.76,.7-5.53,.71-8.34,0-2.37,.11-4.74,.14-7.11,.05-3.98,.08-7.96,.07-11.94,0-1.44-.12-2.88-.25-4.31-.26-2.91-.56-5.81-.85-8.71Z"/><path class="c" d="M575.19,137.39c.15-4.99,.1-9.99,.07-14.98-.04-5.81-.36-11.59-1.29-17.32-.2-1.25-.46-2.49-.7-3.74-.09-.42-.21-.81-.67-.93,.41-.72,.15-1.38-.19-2.01-.07-.14-.33-.21-.51-.23-.34-.04-.68,.28-1.03,.07,.01-.05,.01-.12,.03-.13,.22-.1,.44-.19,.66-.29,.48-.21,.61-.5,.45-.98-.1-.31-.3-.47-.6-.5,.38-.68,.2-1.26-.28-1.83-.76,.16-1.5,.31-2.24,.46-.04,0-.09-.1-.2-.22,.3-.14,.58-.28,.86-.39,.34-.14,.69-.23,1.01-.38,.29-.13,.38-.42,.25-.74-.11-.27-.3-.37-.58-.3-.35,.09-.7,.18-1.05,.25-.05,.01-.11-.07-.23-.17,.48-.24,.94-.46,1.39-.68,.07-.64-.11-1.12-.59-1.5-.34,.12-.68,.24-1.02,.35q-.49,.17-1.07,0c.7-.31,1.31-.58,1.95-.86-.11-.69-.28-1.27-.85-1.62,.04-.6-.21-1.03-.66-1.38-.5,.17-.99,.33-1.48,.48-.15,.04-.32,.08-.38-.23,.5-.25,1.03-.51,1.54-.76q-.12-.79-.71-1.31c-.19,.09-.4,.23-.62,.28-.38,.1-.77,.17-1.16,.21-.18,0-.4-.07-.35-.4,.49-.48,1.32-.21,1.8-.85-.13-.58-.32-1.11-.87-1.39-.4,.56-.93,.86-1.54,.97-.21-.21-.15-.36-.03-.48,.38-.38,.81-.66,1.35-.7,.09-.47-.16-.82-.43-1.13-.63-.71-1.24-1.45-1.93-2.07-3.23-2.89-7.02-4.46-11.18-5.12-.21-.03-.44,.02-.66,.03,.48,.64,.98,1.15,1.52,1.39,.5,.05,.73-.42,1.23-.28-.22,.32-.4,.56-.61,.87,.6,.61,1.17,1.19,1.74,1.78h0c.34-.05,.68-.1,1.05-.15,.05,.41-.34,.41-.47,.63,.4,.44,.75,.95,1.32,1.18h0l.03-.02c.23-.41,.52-.75,.93-.96,.22-.12,.26-.05,.17,.17h0c-.27,.42-.65,.66-1.11,.79,0,0-.01,.02-.02,.02,.51,.98,1.22,1.77,2.02,2.49,.03,.02,.07,.02,.11,.03h0c.32-.32,.58-.68,1.02-.79,.23,.19,.09,.34-.04,.4-.32,.15-.66,.26-.98,.38,.05,.59,.32,1.02,.79,1.26,.55-.29,1.04-.58,1.54-.82,.17-.08,.39-.11,.5,.26-.54,.42-1.11,.85-1.73,1.32,.17,.25,.28,.44,.44,.68,.54-.42,1.02-.82,1.65-.83,.19,0,.41,0,.47,.37-.44,.57-1.32,.51-1.78,1.22,.09,.28,.19,.6,.3,.9,.28,.7,.62,1.38,.84,2.1,.24,.78,.61,1.34,1.4,1.5,.03,0,.04,.07,.09,.17-.13,.28-.35,.6-.41,.95-.06,.37,.09,.75,.41,.97,.33,.13,.73-.17,1.06,.26-.32,.21-.6,.39-.87,.56q.26,.87,.83,.91c.26,.02,.56-.13,.76,.33-.25,.16-.52,.3-.76,.5-.1,.09-.16,.29-.15,.44,.03,.23,.2,.36,.43,.33,.16-.02,.31-.06,.47-.1,.5-.13,1-.28,1.51-.38,.21-.05,.44,0,.91,0-.57,.51-1.05,.55-1.48,.68-.49,.15-1.03,.13-1.44,.46,.08,.99,.14,1.07,.85,1.05,.32,0,.64-.05,.95-.05,.15,0,.3,.07,.26,.36-.11,.05-.25,.14-.4,.17-.27,.05-.55,.06-.83,.12-.31,.06-.44,.32-.36,.67,.07,.27,.22,.46,.49,.47,.32,.03,.64,0,.95,.03,.15,0,.32,.05,.26,.38-.38,.09-.79,.19-1.19,.29-.23,.44-.11,.76,.24,1.12,.34-.04,.74-.09,1.13-.12,.16-.01,.32,0,.36,.27-.4,.13-.82,.23-1.21,.4-.11,.04-.25,.27-.22,.39,.03,.18,.15,.4,.3,.48,.15,.09,.38,.07,.58,.06,.4-.03,.79-.09,1.19-.11,.16,0,.32,.05,.32,.35-.37,.08-.76,.17-1.14,.25-.23,.05-.48,.05-.7,.15-.11,.05-.26,.25-.25,.36,.03,.18,.16,.4,.3,.47,.17,.07,.39,0,.58-.01,.72-.06,1.43-.13,2.15-.19,.14,0,.33,0,.32,.31-.96,.48-2.1,.21-3.14,.66-.05,.3-.08,.58-.12,.87h0c.16,.02,2.51-.44,3.6-.14-.09,.13-.13,.25-.18,.25-.98,.1-1.95,.19-2.93,.29h0c-.15,.06-.3,.12-.45,.19,.07,1.24,.32,2.46,.22,3.72,.78,.07,1.58-.08,2.34,.09,.02,.33-.15,.37-.3,.38-.68,.05-1.35,.07-2.03,.11,0,.3,0,.62-.01,.92,.79,.01,1.59,.03,2.38,.05,.38,0,.78,.04,1.15,.06,.02,.33-.15,.38-.3,.39-.56,.03-1.11,.05-1.66,.07-.52,.02-1.03,.05-1.55,.07,0,.46,0,.92,0,1.38h0c.59,0,1.18,.02,1.77,.03,.38,0,.77,.01,1.16,.02,0,.11,0,.16-.02,.19-.01,.03-.05,.06-.09,.06-.43,.06-.86,.13-1.29,.17-.51,.06-1.02,.11-1.53,.16,.17,.9,.19,.94,.94,.95,.59,.01,1.19,0,1.78,0,.16,0,.38-.09,.48,.26-.74,.07-1.45,.13-2.15,.21-.24,.03-.48,.05-.7,.13-.26,.1-.34,.36-.28,.62,.04,.18,.17,.42,.31,.47,.25,.1,.54,.09,.82,.11,.52,.03,1.03,.02,1.54,.07,.16,.02,.3,.16,.7,.38-1.23,.32-2.21,.23-3.19,.13-.09,.07-.17,.14-.26,.21,0,.38-.01,.76,.02,1.14,.05,.55,.23,.74,.77,.77,.76,.05,1.52,.03,2.27,.08,.79,.06,1.59,.16,2.38,.26,.13,.01,.25,.12,.46,.23-.47,.34-.87,.21-1.25,.19-1.32-.09-2.63-.21-3.94-.29-.4-.03-.63,.21-.66,.58-.03,.46,.17,.76,.58,.79,.32,.03,.64,.02,.96,.03,.64,.02,1.27,.03,1.91,.06,.19,0,.41,.02,.48,.35-.15,.04-.29,.1-.43,.1-.68,0-1.36,0-2.04,0-.32,0-.64,0-.95,.04-.26,.03-.43,.23-.48,.49-.06,.28-.09,.58-.09,.88-.01,1.14-.01,2.28-.02,3.42,0,.08,0,.16,0,.24,.01,.37-.05,.77,.27,1.15,.4,.16,.88,.08,1.35,.13,.99,.11,1.98,.23,2.97,.37,.15,.02,.4,.04,.33,.4-.32,0-.63,.02-.94,0-.79-.07-1.59-.18-2.38-.25-.36-.03-.72-.05-1.07,0-.15,.03-.32,.23-.4,.39-.09,.2,.14,.48,.4,.52,.28,.05,.56,.05,.83,.09,.76,.09,1.5,.18,2.26,.29,.17,.03,.33,.14,.76,.34-.46,.08-.64,.15-.81,.14-.76-.04-1.51-.11-2.27-.16-.39-.03-.79-.16-1.23,.21-.36,2.7-.26,5.49-.32,8.27,0,.28,.09,.56,.13,.77,.49,.34,.93,.18,1.36,.2,.48,.01,.96,0,1.43,.07,.4,.05,.87-.08,1.32,.4-.3,.07-.48,.14-.66,.15-.79,0-1.6,0-2.39,0-.28,0-.56,0-.84,.04-.26,.03-.47,.21-.49,.48-.06,.63-.08,1.26-.08,1.89,0,.29,.22,.46,.47,.5,.23,.04,.48,.02,.72,.03,.91,.04,1.83,.08,2.75,.13,.13,.01,.26,.09,.4,.15-1.38,.55-2.81,.23-4.25,.39v.91c.44,.03,.79,.04,1.15,.08,.76,.08,1.51,.17,2.26,.28,.15,.02,.32,.07,.25,.4-.64,.1-1.3,.07-1.97-.03-.44-.06-.87-.09-1.31-.11-.15,0-.32,.04-.3,.37,.23,.05,.49,.12,.75,.13,.91,.02,1.83,.01,2.75,.05,.25,0,.56-.03,.71,.39-.19,.08-.36,.2-.55,.23-.79,.11-1.59,.16-2.38,0-.27-.05-.55-.11-.83-.12-.44-.02-.68,.15-.73,.48-.06,.36,.21,.63,.7,.65,.8,.04,1.6,.04,2.4,.07,.28,.01,.56,.06,.82,.13,.09,.03,.22,.22,.2,.28-.05,.13-.19,.31-.28,.31-.6,0-1.2-.06-1.8-.1-.52-.03-1.03-.09-1.55-.09-.32,0-.53,.26-.5,.58,.1,.91,.4,1.72,1.13,2.29,.88,.7,1.87,1.13,2.91,1.45,1.75,.54,2.34,.22,3.19-1.47,.48-.94,.69-1.98,.79-3.04,.36-3.7,.6-7.42,.71-11.14Zm-19.3-60.04c-.25,.12-.52,.25-.65-.19,.31-.47,.75-.67,1.25-.86,.06,.63-.01,.76-.59,1.05Zm1.5,.44q0-.43,.57-.41l-.57,.41Zm1.41,3.38c-.19-.22-.07-.36,.06-.44,.3-.18,.62-.33,.93-.5,.05,.05,.09,.1,.14,.15-.31,.37-.68,.66-1.12,.78Zm2.42,.11c.28-.84,.71-.99,1.33-1.23-.22,.84-.69,.93-1.33,1.23Zm1.68,1.21c-.19-.24-.07-.37,.06-.46,.25-.19,.49-.44,1.01-.34-.29,.54-.67,.7-1.07,.8Zm-.66,4.61c.4-.59,.83-.73,1.31-.75,.06,0,.14,.08,.16,.15,.02,.07,.02,.19-.03,.23-.37,.34-.77,.55-1.45,.37Zm1.1,1.8c-.09,0-.18-.13-.24-.22-.02-.03,.03-.16,.08-.2,.38-.28,.78-.34,1.35-.09-.42,.47-.8,.54-1.2,.51Zm1.97,1.23c-.2,.22-.44,.32-.73,.22-.05-.02-.08-.12-.16-.25,.16-.1,.3-.23,.47-.28,.13-.03,.29,.04,.42,.09,.02,0,.03,.17,0,.21Zm.18,2.37c-.19-.25-.04-.37,.11-.4,.26-.05,.52-.04,.92-.06-.37,.45-.71,.44-1.03,.46Zm1.15,1.52c-.14,.03-.3,.02-.45,.03l-.08-.19c.13-.07,.26-.15,.39-.19,.1-.03,.22,0,.32,0,.11,.25-.04,.32-.19,.36Zm.2-4.43c.39-.52,.56-.6,1.92-.86h0c-.65,.73-.87,.83-1.92,.86Zm1.13,7.72c.31-.32,.52-.2,.73,0h-.73Zm1.29,1.33c-.14,.02-.29,0-.43,0l-.02-.2c.14-.01,.28-.04,.43-.04,.06,0,.12,.07,.18,.11-.05,.04-.1,.12-.15,.13Zm-.27,10.17l-.26,.02h-.52c.58-.43,.59-.43,1.48-.12l-.7,.1Zm1.46-12.21s-.01,0-.02,.01h-.02s.03-.01,.04-.01c.28-.22,.6-.26,.93-.22,0,0,.02,0,.02-.01v.02s-.01,0-.02,0c-.28,.21-.6,.24-.93,.22Zm1.51,4.08c0-.32,.2-.24,.31-.26,.09-.02,.19,0,.29,.02h.04s-.03,0-.04,0c-.19,.08-.38,.15-.6,.24Zm-3.72,41.66c.84-.33,1.62-.06,2.52,.19-.78,.41-1.25,.38-2.52-.19Zm3.67-18.58c-.86,.42-1.57,.26-2.27,.25-.41,0-.87,.04-1.23-.33,.91-.52,2.31-.52,3.5,.08Zm-4.84,3.58c0-.08,0-.16,0-.24,1.17-.15,2.34-.31,3.52-.43,.41-.05,.85-.1,1.27,.21-.77,.32-2.09,.44-4.8,.46Zm1.16,5.75c1.1-.1,2.45,.01,3.41,.32-1.38,.13-2.57,.12-3.79-.17,.13-.05,.26-.13,.39-.14Zm3.73,5.86c-1.21,.14-2.42,.16-3.81,0,.22-.22,.27-.31,.33-.32,.74-.05,1.49-.1,2.23-.12,.46-.01,.94-.06,1.46,.13-.09,.14-.14,.29-.21,.3Zm-3.68-2.12c1.21-.25,2.37-.09,3.51,.07-.41,.37-.86,.32-1.29,.31-.67-.01-1.35-.07-2.02-.13-.05,0-.1-.11-.2-.25Zm-.73-1.24c.09-.09,.17-.22,.25-.23,1.14-.06,2.29-.11,3.44-.14,.3,0,.64-.06,.95,.34-1.55,.44-3.51,.44-4.64,.03Zm.19-10.33c.21-.08,.34-.17,.48-.18,1.33-.14,2.99-.02,4.43,.36-1.56,.27-4.03,.18-4.9-.17Z"/></g><text class="d" transform="translate(0 162.72)"><tspan x="0" y="0">FREAK</tspan></text><text class="e" transform="translate(602.87 160.29)"><tspan x="0" y="0">CLUB</tspan></text></svg>